<?xml version="1.0" encoding="UTF-8" standalone="no"?>
<svg
   xmlns:ns8="http://www.iki.fi/pav/software/textext/"
   xmlns:dc="http://purl.org/dc/elements/1.1/"
   xmlns:cc="http://creativecommons.org/ns#"
   xmlns:rdf="http://www.w3.org/1999/02/22-rdf-syntax-ns#"
   xmlns:svg="http://www.w3.org/2000/svg"
   xmlns="http://www.w3.org/2000/svg"
   xmlns:sodipodi="http://sodipodi.sourceforge.net/DTD/sodipodi-0.dtd"
   xmlns:inkscape="http://www.inkscape.org/namespaces/inkscape"
   width="61.317127mm"
   height="44.732525mm"
   viewBox="0 0 61.317127 44.732524"
   version="1.1"
   id="svg8"
   inkscape:version="1.0.1 (3bc2e813f5, 2020-09-07)"
   sodipodi:docname="mod27-mulgroup.svg">
  <defs
     id="defs2" />
  <sodipodi:namedview
     id="base"
     pagecolor="#ffffff"
     bordercolor="#666666"
     borderopacity="1.0"
     inkscape:pageopacity="0.0"
     inkscape:pageshadow="2"
     inkscape:zoom="2.8"
     inkscape:cx="111.99786"
     inkscape:cy="96.742079"
     inkscape:document-units="mm"
     inkscape:current-layer="layer1"
     inkscape:document-rotation="0"
     showgrid="false"
     fit-margin-top="10"
     lock-margins="false"
     inkscape:window-width="1920"
     inkscape:window-height="1005"
     inkscape:window-x="-9"
     inkscape:window-y="-9"
     inkscape:window-maximized="1"
     fit-margin-left="10"
     fit-margin-bottom="10"
     fit-margin-right="10" />
  <metadata
     id="metadata5">
    <rdf:RDF>
      <cc:Work
         rdf:about="">
        <dc:format>image/svg+xml</dc:format>
        <dc:type
           rdf:resource="http://purl.org/dc/dcmitype/StillImage" />
        <dc:title></dc:title>
      </cc:Work>
    </rdf:RDF>
  </metadata>
  <g
     inkscape:label="Layer 1"
     inkscape:groupmode="layer"
     id="layer1"
     transform="translate(-32.458783,-21.479122)">
    <g
       id="g83"
       transform="translate(1.1196536,0.02669943)">
      <text
         xml:space="preserve"
         style="font-size:3.52777px;line-height:1.25;font-family:sans-serif;stroke-width:0.264583"
         x="41.979916"
         y="42.856747"
         id="text9"><tspan
           sodipodi:role="line"
           id="tspan7"
           x="41.979916"
           y="42.856747"
           style="stroke-width:0.264583">1</tspan></text>
      <text
         xml:space="preserve"
         style="font-size:3.52777px;line-height:1.25;font-family:sans-serif;stroke-width:0.264583"
         x="47.933041"
         y="42.856747"
         id="text13"><tspan
           sodipodi:role="line"
           id="tspan11"
           x="47.933041"
           y="42.856747"
           style="stroke-width:0.264583">2</tspan></text>
    </g>
    <g
       id="g113"
       transform="translate(3.1467131,-0.02669943)">
      <text
         xml:space="preserve"
         style="font-size:3.52777px;line-height:1.25;font-family:sans-serif;stroke-width:0.264583"
         x="55.587059"
         y="42.856747"
         id="text17"><tspan
           sodipodi:role="line"
           id="tspan15"
           x="55.587059"
           y="42.856747"
           style="stroke-width:0.264583">4</tspan></text>
      <text
         xml:space="preserve"
         style="font-size:3.52777px;line-height:1.25;font-family:sans-serif;stroke-width:0.264583"
         x="61.918159"
         y="42.856747"
         id="text21"><tspan
           sodipodi:role="line"
           id="tspan19"
           x="61.918159"
           y="42.856747"
           style="stroke-width:0.264583">5</tspan></text>
    </g>
    <g
       id="g107"
       transform="translate(4.715203)">
      <text
         xml:space="preserve"
         style="font-size:3.52777px;line-height:1.25;font-family:sans-serif;stroke-width:0.264583"
         x="69.572182"
         y="42.856747"
         id="text25"><tspan
           sodipodi:role="line"
           id="tspan23"
           x="69.572182"
           y="42.856747"
           style="stroke-width:0.264583">7</tspan></text>
      <text
         xml:space="preserve"
         style="font-size:3.52777px;line-height:1.25;font-family:sans-serif;stroke-width:0.264583"
         x="75.903282"
         y="42.856747"
         id="text29"><tspan
           sodipodi:role="line"
           id="tspan27"
           x="75.903282"
           y="42.856747"
           style="stroke-width:0.264583">8</tspan></text>
    </g>
    <g
       id="g101"
       transform="translate(0.07148557,-0.05918624)">
      <text
         xml:space="preserve"
         style="font-size:3.52777px;line-height:1.25;font-family:sans-serif;stroke-width:0.264583"
         x="41.979916"
         y="49.565823"
         id="text33"><tspan
           sodipodi:role="line"
           id="tspan31"
           x="41.979916"
           y="49.565823"
           style="stroke-width:0.264583">10</tspan></text>
      <text
         xml:space="preserve"
         style="font-size:3.52777px;line-height:1.25;font-family:sans-serif;stroke-width:0.264583"
         x="47.933041"
         y="49.565823"
         id="text37"><tspan
           sodipodi:role="line"
           id="tspan35"
           x="47.933041"
           y="49.565823"
           style="stroke-width:0.264583">11</tspan></text>
    </g>
    <g
       id="g119"
       transform="translate(1.8126028,-0.05832497)">
      <text
         xml:space="preserve"
         style="font-size:3.52777px;line-height:1.25;font-family:sans-serif;stroke-width:0.264583"
         x="55.587059"
         y="49.565823"
         id="text41"><tspan
           sodipodi:role="line"
           id="tspan39"
           x="55.587059"
           y="49.565823"
           style="stroke-width:0.264583">13</tspan></text>
      <text
         xml:space="preserve"
         style="font-size:3.52777px;line-height:1.25;font-family:sans-serif;stroke-width:0.264583"
         x="61.918159"
         y="49.565823"
         id="text45"><tspan
           sodipodi:role="line"
           id="tspan43"
           x="61.918159"
           y="49.565823"
           style="stroke-width:0.264583">14</tspan></text>
    </g>
    <g
       id="g125"
       transform="translate(3.493058,-0.06090879)">
      <text
         xml:space="preserve"
         style="font-size:3.52777px;line-height:1.25;font-family:sans-serif;stroke-width:0.264583"
         x="69.572182"
         y="49.565823"
         id="text49"><tspan
           sodipodi:role="line"
           id="tspan47"
           x="69.572182"
           y="49.565823"
           style="stroke-width:0.264583">16</tspan></text>
      <text
         xml:space="preserve"
         style="font-size:3.52777px;line-height:1.25;font-family:sans-serif;stroke-width:0.264583"
         x="75.903282"
         y="49.565823"
         id="text53"><tspan
           sodipodi:role="line"
           id="tspan51"
           x="75.903282"
           y="49.565823"
           style="stroke-width:0.264583">17</tspan></text>
    </g>
    <g
       id="g143"
       transform="translate(0,-0.58912309)">
      <text
         xml:space="preserve"
         style="font-size:3.52777px;line-height:1.25;font-family:sans-serif;stroke-width:0.264583"
         x="41.979916"
         y="56.747372"
         id="text57"><tspan
           sodipodi:role="line"
           id="tspan55"
           x="41.979916"
           y="56.747372"
           style="stroke-width:0.264583">19</tspan></text>
      <text
         xml:space="preserve"
         style="font-size:3.52777px;line-height:1.25;font-family:sans-serif;stroke-width:0.264583"
         x="47.933041"
         y="56.747372"
         id="text61"><tspan
           sodipodi:role="line"
           id="tspan59"
           x="47.933041"
           y="56.747372"
           style="stroke-width:0.264583">20</tspan></text>
    </g>
    <g
       id="g137"
       transform="translate(1.9607416,-0.58912309)">
      <text
         xml:space="preserve"
         style="font-size:3.52777px;line-height:1.25;font-family:sans-serif;stroke-width:0.264583"
         x="55.587059"
         y="56.747372"
         id="text65"><tspan
           sodipodi:role="line"
           id="tspan63"
           x="55.587059"
           y="56.747372"
           style="stroke-width:0.264583">22</tspan></text>
      <text
         xml:space="preserve"
         style="font-size:3.52777px;line-height:1.25;font-family:sans-serif;stroke-width:0.264583"
         x="61.918159"
         y="56.747372"
         id="text69"><tspan
           sodipodi:role="line"
           id="tspan67"
           x="61.918159"
           y="56.747372"
           style="stroke-width:0.264583">23</tspan></text>
    </g>
    <g
       id="g131"
       transform="translate(3.5783239,-0.58912309)">
      <text
         xml:space="preserve"
         style="font-size:3.52777px;line-height:1.25;font-family:sans-serif;stroke-width:0.264583"
         x="69.572182"
         y="56.747372"
         id="text73"><tspan
           sodipodi:role="line"
           id="tspan71"
           x="69.572182"
           y="56.747372"
           style="stroke-width:0.264583">25</tspan></text>
      <text
         xml:space="preserve"
         style="font-size:3.52777px;line-height:1.25;font-family:sans-serif;stroke-width:0.264583"
         x="75.903282"
         y="56.747372"
         id="text77"><tspan
           sodipodi:role="line"
           id="tspan75"
           x="75.903282"
           y="56.747372"
           style="stroke-width:0.264583">26</tspan></text>
    </g>
    <g
       transform="matrix(0.49400724,0,0,0.49400724,54.391745,31.479307)"
       ns8:version="1.3.0"
       ns8:texconverter="pdflatex"
       ns8:pdfconverter="inkscape"
       ns8:text="$(\\mathbb{Z}/27\\mathbb{Z})^*$"
       ns8:preamble="C:\Users\Way Yan\AppData\Roaming\inkscape\extensions\textext\default_packages.tex"
       ns8:scale="1.8685263284856737"
       ns8:alignment="middle center"
       ns8:inkscapeversion="1.0.1"
       ns8:jacobian_sqrt="0.659175"
       id="g249">
      <defs
         id="id-a8bdc70b-0dd8-4cba-a7ba-40ac9c8695b9">
        <g
           id="id-5e2293dc-6dd2-4992-bc1e-9e73df25c016">
          <symbol
             overflow="visible"
             id="id-6008e691-1efa-4cfa-9161-90ca8e2332ba">
            <path
               style="stroke:none;stroke-width:0"
               d=""
               id="id-b82f1905-36e8-422b-bece-0769f5ba8f8c" />
          </symbol>
          <symbol
             overflow="visible"
             id="id-c40ebded-5fce-48a0-a8b7-493b2d7d3958">
            <path
               style="stroke:none;stroke-width:0"
               d="m 3.296875,2.390625 c 0,-0.03125 0,-0.046875 -0.171875,-0.21875 C 1.890625,0.921875 1.5625,-0.96875 1.5625,-2.5 c 0,-1.734375 0.375,-3.46875 1.609375,-4.703125 0.125,-0.125 0.125,-0.140625 0.125,-0.171875 0,-0.078125 -0.03125,-0.109375 -0.09375,-0.109375 -0.109375,0 -1,0.6875 -1.59375,1.953125 -0.5,1.09375 -0.625,2.203125 -0.625,3.03125 0,0.78125 0.109375,1.984375 0.65625,3.125 C 2.25,1.84375 3.09375,2.5 3.203125,2.5 c 0.0625,0 0.09375,-0.03125 0.09375,-0.109375 z m 0,0"
               id="id-11bd6ab4-86a4-4ba5-8b30-89d2c98c6d35" />
          </symbol>
          <symbol
             overflow="visible"
             id="id-58a3c7db-c495-4542-a377-a1899c98b70c">
            <path
               style="stroke:none;stroke-width:0"
               d="m 1.265625,-0.765625 1.0625,-1.03125 c 1.546875,-1.375 2.140625,-1.90625 2.140625,-2.90625 0,-1.140625 -0.890625,-1.9375 -2.109375,-1.9375 -1.125,0 -1.859375,0.921875 -1.859375,1.8125 0,0.546875 0.5,0.546875 0.53125,0.546875 0.171875,0 0.515625,-0.109375 0.515625,-0.53125 0,-0.25 -0.1875,-0.515625 -0.53125,-0.515625 -0.078125,0 -0.09375,0 -0.125,0.015625 0.21875,-0.65625 0.765625,-1.015625 1.34375,-1.015625 0.90625,0 1.328125,0.8125 1.328125,1.625 C 3.5625,-3.90625 3.078125,-3.125 2.515625,-2.5 l -1.90625,2.125 C 0.5,-0.265625 0.5,-0.234375 0.5,0 H 4.203125 L 4.46875,-1.734375 H 4.234375 C 4.171875,-1.4375 4.109375,-1 4,-0.84375 3.9375,-0.765625 3.28125,-0.765625 3.0625,-0.765625 Z m 0,0"
               id="id-fb4d8634-862e-4ba0-8ace-7dbd4f0f93fb" />
          </symbol>
          <symbol
             overflow="visible"
             id="id-b3923a2f-af4b-49ca-844e-679a2f138aaf">
            <path
               style="stroke:none;stroke-width:0"
               d="m 4.75,-6.078125 c 0.078125,-0.109375 0.078125,-0.125 0.078125,-0.34375 H 2.40625 c -1.203125,0 -1.234375,-0.125 -1.265625,-0.3125 h -0.25 L 0.5625,-4.6875 h 0.25 c 0.03125,-0.15625 0.109375,-0.78125 0.25,-0.90625 0.0625,-0.0625 0.84375,-0.0625 0.96875,-0.0625 h 2.0625 C 3.984375,-5.5 3.203125,-4.40625 2.984375,-4.078125 2.078125,-2.734375 1.75,-1.34375 1.75,-0.328125 c 0,0.09375 0,0.546875 0.46875,0.546875 0.453125,0 0.453125,-0.453125 0.453125,-0.546875 V -0.84375 c 0,-0.546875 0.03125,-1.09375 0.109375,-1.625 0.046875,-0.234375 0.171875,-1.09375 0.625,-1.703125 z m 0,0"
               id="id-0ba9f516-781f-4b06-ba8b-f75d0f5b987d" />
          </symbol>
          <symbol
             overflow="visible"
             id="id-e8afcaf7-af1d-4553-98fc-4f287a3e17e0">
            <path
               style="stroke:none;stroke-width:0"
               d="m 2.875,-2.5 c 0,-0.765625 -0.109375,-1.96875 -0.65625,-3.109375 -0.59375,-1.21875 -1.453125,-1.875 -1.546875,-1.875 -0.0625,0 -0.109375,0.046875 -0.109375,0.109375 0,0.03125 0,0.046875 0.1875,0.234375 0.984375,0.984375 1.546875,2.5625 1.546875,4.640625 0,1.71875 -0.359375,3.46875 -1.59375,4.71875 C 0.5625,2.34375 0.5625,2.359375 0.5625,2.390625 0.5625,2.453125 0.609375,2.5 0.671875,2.5 0.765625,2.5 1.671875,1.8125 2.25,0.546875 2.765625,-0.546875 2.875,-1.65625 2.875,-2.5 Z m 0,0"
               id="id-eda72a4c-ab95-4a16-9806-dc9eb2d3620d" />
          </symbol>
          <symbol
             overflow="visible"
             id="id-e3527c61-58d6-42bc-a6d9-a386e583e93d">
            <path
               style="stroke:none;stroke-width:0"
               d=""
               id="id-45f78ef7-cfd0-4417-bd13-8f60e5a2b19a" />
          </symbol>
          <symbol
             overflow="visible"
             id="id-2b9cc6bf-00c4-44ae-bbfc-faca5909837b">
            <path
               style="stroke:none;stroke-width:0"
               d="m 5.9375,-6.46875 c 0.09375,-0.125 0.09375,-0.15625 0.09375,-0.1875 0,-0.171875 -0.15625,-0.171875 -0.328125,-0.171875 h -4.5625 c -0.328125,0 -0.328125,0.03125 -0.359375,0.28125 L 0.640625,-5.1875 0.625,-5.0625 c 0,0.140625 0.109375,0.1875 0.171875,0.1875 0.09375,0 0.15625,-0.0625 0.171875,-0.15625 0.03125,-0.234375 0.125,-0.671875 0.734375,-1.046875 0.5625,-0.375 1.265625,-0.40625 1.609375,-0.40625 h 0.796875 l -3.734375,6.125 c -0.09375,0.125 -0.09375,0.15625 -0.09375,0.1875 C 0.28125,0 0.4375,0 0.625,0 H 5.734375 C 6.03125,0 6.03125,-0.015625 6.078125,-0.28125 L 6.34375,-2.25 C 6.34375,-2.359375 6.25,-2.421875 6.171875,-2.421875 6.015625,-2.421875 6,-2.328125 5.96875,-2.125 5.796875,-1.3125 5.03125,-0.34375 3.609375,-0.34375 H 2.1875 Z M 1.125,-6.484375 h 0.53125 v 0.015625 c -0.265625,0.15625 -0.453125,0.328125 -0.578125,0.4375 z m 3.40625,0 H 5.546875 L 1.78125,-0.34375 H 0.765625 Z m 0.515625,6.125 c 0.28125,-0.15625 0.546875,-0.375 0.78125,-0.65625 -0.03125,0.203125 -0.046875,0.3125 -0.09375,0.671875 h -0.6875 z m 0,0"
               id="id-253ebb19-cedc-4504-b428-545ab284997a" />
          </symbol>
          <symbol
             overflow="visible"
             id="id-73f32c25-09c2-44dc-8d72-f2f32c508d05">
            <path
               style="stroke:none;stroke-width:0"
               d=""
               id="id-d04de067-0ba4-4b26-9441-4b8a28b98bf6" />
          </symbol>
          <symbol
             overflow="visible"
             id="id-187d2218-f567-4829-9c0a-1382b0daa51f">
            <path
               style="stroke:none;stroke-width:0"
               d="m 4.375,-7.09375 c 0.046875,-0.140625 0.046875,-0.171875 0.046875,-0.1875 0,-0.109375 -0.078125,-0.203125 -0.1875,-0.203125 -0.078125,0 -0.140625,0.03125 -0.171875,0.09375 l -3.46875,9.5 C 0.546875,2.25 0.546875,2.28125 0.546875,2.296875 0.546875,2.40625 0.640625,2.5 0.75,2.5 0.875,2.5 0.90625,2.421875 0.96875,2.25 Z m 0,0"
               id="id-5fe84476-a09e-47a5-a55e-375a56c51e24" />
          </symbol>
          <symbol
             overflow="visible"
             id="id-9d6a8967-e362-4352-b16e-2b162b9b60ff">
            <path
               style="stroke:none;stroke-width:0"
               d=""
               id="id-f078eba9-a2b1-4881-bc82-d151d9583437" />
          </symbol>
          <symbol
             overflow="visible"
             id="id-ceed525a-b858-4df0-8fdb-42ad4b1907ab">
            <path
               style="stroke:none;stroke-width:0"
               d="m 2.25,-1.734375 c 0.578125,-0.25 0.828125,-0.34375 1,-0.4375 0.140625,-0.046875 0.203125,-0.078125 0.203125,-0.21875 0,-0.109375 -0.09375,-0.21875 -0.21875,-0.21875 -0.046875,0 -0.0625,0 -0.140625,0.0625 L 2.140625,-1.90625 2.25,-2.9375 c 0.015625,-0.125 0,-0.296875 -0.21875,-0.296875 -0.078125,0 -0.21875,0.046875 -0.21875,0.203125 0,0.0625 0.03125,0.265625 0.046875,0.34375 0.015625,0.109375 0.0625,0.625 0.078125,0.78125 L 0.984375,-2.546875 c -0.0625,-0.03125 -0.078125,-0.0625 -0.140625,-0.0625 -0.140625,0 -0.21875,0.109375 -0.21875,0.21875 0,0.140625 0.078125,0.1875 0.140625,0.203125 L 1.8125,-1.734375 c -0.5625,0.25 -0.828125,0.34375 -1,0.421875 -0.125,0.0625 -0.1875,0.09375 -0.1875,0.21875 0,0.125 0.078125,0.21875 0.21875,0.21875 0.046875,0 0.0625,0 0.140625,-0.0625 l 0.953125,-0.625 -0.125,1.109375 c 0,0.15625 0.140625,0.21875 0.21875,0.21875 0.09375,0 0.21875,-0.0625 0.21875,-0.21875 0,-0.0625 -0.03125,-0.265625 -0.03125,-0.328125 -0.015625,-0.125 -0.0625,-0.625 -0.078125,-0.78125 L 2.96875,-1.015625 C 3.15625,-0.875 3.171875,-0.875 3.234375,-0.875 c 0.125,0 0.21875,-0.09375 0.21875,-0.21875 0,-0.140625 -0.09375,-0.171875 -0.15625,-0.203125 z m 0,0"
               id="id-739ff283-2ba0-4892-9b57-17fbe396a74b" />
          </symbol>
        </g>
      </defs>
      <g
         id="id-d630b125-04a6-4de0-858f-10a23d56b026"
         transform="translate(-149.696,-127.281)">
        <g
           style="fill:#000000;fill-opacity:1"
           id="id-0c0fa89d-d127-45c6-98cd-4667bd5d4038">
          <g
             transform="translate(148.712,134.765)"
             id="g218">
            <path
               style="stroke:none;stroke-width:0"
               d="m 3.296875,2.390625 c 0,-0.03125 0,-0.046875 -0.171875,-0.21875 C 1.890625,0.921875 1.5625,-0.96875 1.5625,-2.5 c 0,-1.734375 0.375,-3.46875 1.609375,-4.703125 0.125,-0.125 0.125,-0.140625 0.125,-0.171875 0,-0.078125 -0.03125,-0.109375 -0.09375,-0.109375 -0.109375,0 -1,0.6875 -1.59375,1.953125 -0.5,1.09375 -0.625,2.203125 -0.625,3.03125 0,0.78125 0.109375,1.984375 0.65625,3.125 C 2.25,1.84375 3.09375,2.5 3.203125,2.5 c 0.0625,0 0.09375,-0.03125 0.09375,-0.109375 z m 0,0"
               id="id-92fa7e3b-1804-4c05-9069-3c35f05018d9" />
          </g>
        </g>
        <g
           style="fill:#000000;fill-opacity:1"
           id="id-540302f8-c6b1-4fbe-b5cc-ce78dcf98225">
          <g
             transform="translate(152.587,134.765)"
             id="g222">
            <path
               style="stroke:none;stroke-width:0"
               d="m 5.9375,-6.46875 c 0.09375,-0.125 0.09375,-0.15625 0.09375,-0.1875 0,-0.171875 -0.15625,-0.171875 -0.328125,-0.171875 h -4.5625 c -0.328125,0 -0.328125,0.03125 -0.359375,0.28125 L 0.640625,-5.1875 0.625,-5.0625 c 0,0.140625 0.109375,0.1875 0.171875,0.1875 0.09375,0 0.15625,-0.0625 0.171875,-0.15625 0.03125,-0.234375 0.125,-0.671875 0.734375,-1.046875 0.5625,-0.375 1.265625,-0.40625 1.609375,-0.40625 h 0.796875 l -3.734375,6.125 c -0.09375,0.125 -0.09375,0.15625 -0.09375,0.1875 C 0.28125,0 0.4375,0 0.625,0 H 5.734375 C 6.03125,0 6.03125,-0.015625 6.078125,-0.28125 L 6.34375,-2.25 C 6.34375,-2.359375 6.25,-2.421875 6.171875,-2.421875 6.015625,-2.421875 6,-2.328125 5.96875,-2.125 5.796875,-1.3125 5.03125,-0.34375 3.609375,-0.34375 H 2.1875 Z M 1.125,-6.484375 h 0.53125 v 0.015625 c -0.265625,0.15625 -0.453125,0.328125 -0.578125,0.4375 z m 3.40625,0 H 5.546875 L 1.78125,-0.34375 H 0.765625 Z m 0.515625,6.125 c 0.28125,-0.15625 0.546875,-0.375 0.78125,-0.65625 -0.03125,0.203125 -0.046875,0.3125 -0.09375,0.671875 h -0.6875 z m 0,0"
               id="id-b8d94c57-9b27-47e8-b690-330b25b4eb4f" />
          </g>
        </g>
        <g
           style="fill:#000000;fill-opacity:1"
           id="id-5dcc23a6-22ad-4dab-a7bb-833e9cfdb857">
          <g
             transform="translate(159.228,134.765)"
             id="g226">
            <path
               style="stroke:none;stroke-width:0"
               d="m 4.375,-7.09375 c 0.046875,-0.140625 0.046875,-0.171875 0.046875,-0.1875 0,-0.109375 -0.078125,-0.203125 -0.1875,-0.203125 -0.078125,0 -0.140625,0.03125 -0.171875,0.09375 l -3.46875,9.5 C 0.546875,2.25 0.546875,2.28125 0.546875,2.296875 0.546875,2.40625 0.640625,2.5 0.75,2.5 0.875,2.5 0.90625,2.421875 0.96875,2.25 Z m 0,0"
               id="id-8988f2ac-fcf0-4572-bda0-40edd2b30141" />
          </g>
        </g>
        <g
           style="fill:#000000;fill-opacity:1"
           id="id-fb79f140-46b7-420c-893f-efa57eeb23cc">
          <g
             transform="translate(164.21,134.765)"
             id="g230">
            <path
               style="stroke:none;stroke-width:0"
               d="m 1.265625,-0.765625 1.0625,-1.03125 c 1.546875,-1.375 2.140625,-1.90625 2.140625,-2.90625 0,-1.140625 -0.890625,-1.9375 -2.109375,-1.9375 -1.125,0 -1.859375,0.921875 -1.859375,1.8125 0,0.546875 0.5,0.546875 0.53125,0.546875 0.171875,0 0.515625,-0.109375 0.515625,-0.53125 0,-0.25 -0.1875,-0.515625 -0.53125,-0.515625 -0.078125,0 -0.09375,0 -0.125,0.015625 0.21875,-0.65625 0.765625,-1.015625 1.34375,-1.015625 0.90625,0 1.328125,0.8125 1.328125,1.625 C 3.5625,-3.90625 3.078125,-3.125 2.515625,-2.5 l -1.90625,2.125 C 0.5,-0.265625 0.5,-0.234375 0.5,0 H 4.203125 L 4.46875,-1.734375 H 4.234375 C 4.171875,-1.4375 4.109375,-1 4,-0.84375 3.9375,-0.765625 3.28125,-0.765625 3.0625,-0.765625 Z m 0,0"
               id="id-63d29cde-d7d4-4c9c-965c-565589e11423" />
          </g>
          <g
             transform="translate(169.191,134.765)"
             id="g233">
            <path
               style="stroke:none;stroke-width:0"
               d="m 4.75,-6.078125 c 0.078125,-0.109375 0.078125,-0.125 0.078125,-0.34375 H 2.40625 c -1.203125,0 -1.234375,-0.125 -1.265625,-0.3125 h -0.25 L 0.5625,-4.6875 h 0.25 c 0.03125,-0.15625 0.109375,-0.78125 0.25,-0.90625 0.0625,-0.0625 0.84375,-0.0625 0.96875,-0.0625 h 2.0625 C 3.984375,-5.5 3.203125,-4.40625 2.984375,-4.078125 2.078125,-2.734375 1.75,-1.34375 1.75,-0.328125 c 0,0.09375 0,0.546875 0.46875,0.546875 0.453125,0 0.453125,-0.453125 0.453125,-0.546875 V -0.84375 c 0,-0.546875 0.03125,-1.09375 0.109375,-1.625 0.046875,-0.234375 0.171875,-1.09375 0.625,-1.703125 z m 0,0"
               id="id-c1a5726f-9b2f-4e71-8765-8bc671ac04dd" />
          </g>
        </g>
        <g
           style="fill:#000000;fill-opacity:1"
           id="id-7803026b-00bf-49a8-8aa2-de98ab674423">
          <g
             transform="translate(174.172,134.765)"
             id="g237">
            <path
               style="stroke:none;stroke-width:0"
               d="m 5.9375,-6.46875 c 0.09375,-0.125 0.09375,-0.15625 0.09375,-0.1875 0,-0.171875 -0.15625,-0.171875 -0.328125,-0.171875 h -4.5625 c -0.328125,0 -0.328125,0.03125 -0.359375,0.28125 L 0.640625,-5.1875 0.625,-5.0625 c 0,0.140625 0.109375,0.1875 0.171875,0.1875 0.09375,0 0.15625,-0.0625 0.171875,-0.15625 0.03125,-0.234375 0.125,-0.671875 0.734375,-1.046875 0.5625,-0.375 1.265625,-0.40625 1.609375,-0.40625 h 0.796875 l -3.734375,6.125 c -0.09375,0.125 -0.09375,0.15625 -0.09375,0.1875 C 0.28125,0 0.4375,0 0.625,0 H 5.734375 C 6.03125,0 6.03125,-0.015625 6.078125,-0.28125 L 6.34375,-2.25 C 6.34375,-2.359375 6.25,-2.421875 6.171875,-2.421875 6.015625,-2.421875 6,-2.328125 5.96875,-2.125 5.796875,-1.3125 5.03125,-0.34375 3.609375,-0.34375 H 2.1875 Z M 1.125,-6.484375 h 0.53125 v 0.015625 c -0.265625,0.15625 -0.453125,0.328125 -0.578125,0.4375 z m 3.40625,0 H 5.546875 L 1.78125,-0.34375 H 0.765625 Z m 0.515625,6.125 c 0.28125,-0.15625 0.546875,-0.375 0.78125,-0.65625 -0.03125,0.203125 -0.046875,0.3125 -0.09375,0.671875 h -0.6875 z m 0,0"
               id="id-6722acd5-75b4-4073-83c5-3008278c5119" />
          </g>
        </g>
        <g
           style="fill:#000000;fill-opacity:1"
           id="id-1c73918b-285f-4108-8111-7b1e5e42b2b7">
          <g
             transform="translate(180.814,134.765)"
             id="g241">
            <path
               style="stroke:none;stroke-width:0"
               d="m 2.875,-2.5 c 0,-0.765625 -0.109375,-1.96875 -0.65625,-3.109375 -0.59375,-1.21875 -1.453125,-1.875 -1.546875,-1.875 -0.0625,0 -0.109375,0.046875 -0.109375,0.109375 0,0.03125 0,0.046875 0.1875,0.234375 0.984375,0.984375 1.546875,2.5625 1.546875,4.640625 0,1.71875 -0.359375,3.46875 -1.59375,4.71875 C 0.5625,2.34375 0.5625,2.359375 0.5625,2.390625 0.5625,2.453125 0.609375,2.5 0.671875,2.5 0.765625,2.5 1.671875,1.8125 2.25,0.546875 2.765625,-0.546875 2.875,-1.65625 2.875,-2.5 Z m 0,0"
               id="id-ef9e76c6-c3bb-4a21-a62e-e012fab1a147" />
          </g>
        </g>
        <g
           style="fill:#000000;fill-opacity:1"
           id="id-13824334-b772-400d-80e8-3cb74143d975">
          <g
             transform="translate(184.689,131.149)"
             id="g245">
            <path
               style="stroke:none;stroke-width:0"
               d="m 2.25,-1.734375 c 0.578125,-0.25 0.828125,-0.34375 1,-0.4375 0.140625,-0.046875 0.203125,-0.078125 0.203125,-0.21875 0,-0.109375 -0.09375,-0.21875 -0.21875,-0.21875 -0.046875,0 -0.0625,0 -0.140625,0.0625 L 2.140625,-1.90625 2.25,-2.9375 c 0.015625,-0.125 0,-0.296875 -0.21875,-0.296875 -0.078125,0 -0.21875,0.046875 -0.21875,0.203125 0,0.0625 0.03125,0.265625 0.046875,0.34375 0.015625,0.109375 0.0625,0.625 0.078125,0.78125 L 0.984375,-2.546875 c -0.0625,-0.03125 -0.078125,-0.0625 -0.140625,-0.0625 -0.140625,0 -0.21875,0.109375 -0.21875,0.21875 0,0.140625 0.078125,0.1875 0.140625,0.203125 L 1.8125,-1.734375 c -0.5625,0.25 -0.828125,0.34375 -1,0.421875 -0.125,0.0625 -0.1875,0.09375 -0.1875,0.21875 0,0.125 0.078125,0.21875 0.21875,0.21875 0.046875,0 0.0625,0 0.140625,-0.0625 l 0.953125,-0.625 -0.125,1.109375 c 0,0.15625 0.140625,0.21875 0.21875,0.21875 0.09375,0 0.21875,-0.0625 0.21875,-0.21875 0,-0.0625 -0.03125,-0.265625 -0.03125,-0.328125 -0.015625,-0.125 -0.0625,-0.625 -0.078125,-0.78125 L 2.96875,-1.015625 C 3.15625,-0.875 3.171875,-0.875 3.234375,-0.875 c 0.125,0 0.21875,-0.09375 0.21875,-0.21875 0,-0.140625 -0.09375,-0.171875 -0.15625,-0.203125 z m 0,0"
               id="id-acb8d87f-6a7c-4833-9c18-b9ec8f135a92" />
          </g>
        </g>
      </g>
    </g>
  </g>
</svg>
