<?xml version="1.0" encoding="UTF-8" standalone="no"?>
<svg
   xmlns:ns11="http://www.iki.fi/pav/software/textext/"
   xmlns:dc="http://purl.org/dc/elements/1.1/"
   xmlns:cc="http://creativecommons.org/ns#"
   xmlns:rdf="http://www.w3.org/1999/02/22-rdf-syntax-ns#"
   xmlns:svg="http://www.w3.org/2000/svg"
   xmlns="http://www.w3.org/2000/svg"
   xmlns:sodipodi="http://sodipodi.sourceforge.net/DTD/sodipodi-0.dtd"
   xmlns:inkscape="http://www.inkscape.org/namespaces/inkscape"
   sodipodi:docname="orbit-conjugation.svg"
   inkscape:version="1.0.1 (3bc2e813f5, 2020-09-07)"
   id="svg8"
   version="1.1"
   viewBox="0 0 167.07058 73.445611"
   height="73.44561mm"
   width="167.07057mm">
  <defs
     id="defs2">
    <marker
       style="overflow:visible"
       id="marker1544"
       refX="0"
       refY="0"
       orient="auto"
       inkscape:stockid="Arrow1Mend"
       inkscape:isstock="true">
      <path
         transform="matrix(-0.4,0,0,-0.4,-4,0)"
         style="fill:#000000;fill-opacity:1;fill-rule:evenodd;stroke:#000000;stroke-width:1pt;stroke-opacity:1"
         d="M 0,0 5,-5 -12.5,0 5,5 Z"
         id="path1542" />
    </marker>
    <marker
       style="overflow:visible"
       id="marker1534"
       refX="0"
       refY="0"
       orient="auto"
       inkscape:stockid="Arrow1Mend"
       inkscape:isstock="true">
      <path
         transform="matrix(-0.4,0,0,-0.4,-4,0)"
         style="fill:#000000;fill-opacity:1;fill-rule:evenodd;stroke:#000000;stroke-width:1pt;stroke-opacity:1"
         d="M 0,0 5,-5 -12.5,0 5,5 Z"
         id="path1532" />
    </marker>
    <marker
       style="overflow:visible"
       id="marker1424"
       refX="0"
       refY="0"
       orient="auto"
       inkscape:stockid="Arrow1Mend"
       inkscape:isstock="true">
      <path
         transform="matrix(-0.4,0,0,-0.4,-4,0)"
         style="fill:#000000;fill-opacity:1;fill-rule:evenodd;stroke:#000000;stroke-width:1pt;stroke-opacity:1"
         d="M 0,0 5,-5 -12.5,0 5,5 Z"
         id="path1422" />
    </marker>
    <marker
       style="overflow:visible"
       id="marker1288"
       refX="0"
       refY="0"
       orient="auto"
       inkscape:stockid="Arrow1Mend"
       inkscape:isstock="true"
       inkscape:collect="always">
      <path
         transform="matrix(-0.4,0,0,-0.4,-4,0)"
         style="fill:#000000;fill-opacity:1;fill-rule:evenodd;stroke:#000000;stroke-width:1pt;stroke-opacity:1"
         d="M 0,0 5,-5 -12.5,0 5,5 Z"
         id="path1286" />
    </marker>
    <marker
       style="overflow:visible"
       id="marker1278"
       refX="0"
       refY="0"
       orient="auto"
       inkscape:stockid="Arrow1Mend"
       inkscape:isstock="true"
       inkscape:collect="always">
      <path
         transform="matrix(-0.4,0,0,-0.4,-4,0)"
         style="fill:#000000;fill-opacity:1;fill-rule:evenodd;stroke:#000000;stroke-width:1pt;stroke-opacity:1"
         d="M 0,0 5,-5 -12.5,0 5,5 Z"
         id="path1276" />
    </marker>
    <marker
       style="overflow:visible"
       id="marker1196"
       refX="0"
       refY="0"
       orient="auto"
       inkscape:stockid="Arrow1Mend"
       inkscape:isstock="true"
       inkscape:collect="always">
      <path
         transform="matrix(-0.4,0,0,-0.4,-4,0)"
         style="fill:#000000;fill-opacity:1;fill-rule:evenodd;stroke:#000000;stroke-width:1pt;stroke-opacity:1"
         d="M 0,0 5,-5 -12.5,0 5,5 Z"
         id="path1194" />
    </marker>
    <marker
       style="overflow:visible"
       id="marker1132"
       refX="0"
       refY="0"
       orient="auto"
       inkscape:stockid="Arrow1Mend"
       inkscape:isstock="true">
      <path
         transform="matrix(-0.4,0,0,-0.4,-4,0)"
         style="fill:#000000;fill-opacity:1;fill-rule:evenodd;stroke:#000000;stroke-width:1pt;stroke-opacity:1"
         d="M 0,0 5,-5 -12.5,0 5,5 Z"
         id="path1130" />
    </marker>
  </defs>
  <sodipodi:namedview
     id="base"
     pagecolor="#ffffff"
     bordercolor="#666666"
     borderopacity="1.0"
     inkscape:pageopacity="0.0"
     inkscape:pageshadow="2"
     inkscape:zoom="1.979899"
     inkscape:cx="363.58831"
     inkscape:cy="127.67398"
     inkscape:document-units="mm"
     inkscape:current-layer="layer1"
     inkscape:document-rotation="0"
     showgrid="false"
     fit-margin-top="10"
     lock-margins="false"
     inkscape:window-width="1920"
     inkscape:window-height="1005"
     inkscape:window-x="-9"
     inkscape:window-y="-9"
     inkscape:window-maximized="1"
     fit-margin-left="10"
     fit-margin-bottom="10"
     fit-margin-right="10" />
  <metadata
     id="metadata5">
    <rdf:RDF>
      <cc:Work
         rdf:about="">
        <dc:format>image/svg+xml</dc:format>
        <dc:type
           rdf:resource="http://purl.org/dc/dcmitype/StillImage" />
        <dc:title></dc:title>
      </cc:Work>
    </rdf:RDF>
  </metadata>
  <g
     inkscape:label="Layer 1"
     inkscape:groupmode="layer"
     id="layer1"
     transform="translate(-8.4054173,-39.834546)">
    <g
       id="g1706"
       transform="translate(-8.0849214)">
      <circle
         style="fill:#ff0000;stroke:none;stroke-width:0.120441;stroke-linecap:round;stroke-linejoin:round"
         id="circle1252"
         cx="88.332573"
         cy="51.474342"
         r="1.6397963" />
      <circle
         style="fill:#ff0000;stroke:none;stroke-width:0.120441;stroke-linecap:round;stroke-linejoin:round"
         id="circle1254"
         cx="88.332573"
         cy="60.448803"
         r="1.6397963" />
      <circle
         style="fill:#0000ff;stroke:none;stroke-width:0.120441;stroke-linecap:round;stroke-linejoin:round"
         id="circle1256"
         cx="88.332573"
         cy="69.423264"
         r="1.6397963" />
      <circle
         style="fill:#0000ff;stroke:none;stroke-width:0.120441;stroke-linecap:round;stroke-linejoin:round"
         id="circle1258"
         cx="88.332573"
         cy="78.39772"
         r="1.6397963" />
      <circle
         style="fill:#0000ff;stroke:none;stroke-width:0.120441;stroke-linecap:round;stroke-linejoin:round"
         id="circle1260"
         cx="88.332573"
         cy="87.372177"
         r="1.6397963" />
      <circle
         style="fill:#ff0000;stroke:none;stroke-width:0.120441;stroke-linecap:round;stroke-linejoin:round"
         id="circle1262"
         cx="111.71866"
         cy="51.474342"
         r="1.6397963" />
      <circle
         style="fill:#ff0000;stroke:none;stroke-width:0.120441;stroke-linecap:round;stroke-linejoin:round"
         id="circle1264"
         cx="111.71866"
         cy="60.448803"
         r="1.6397963" />
      <circle
         style="fill:#0000ff;stroke:none;stroke-width:0.120441;stroke-linecap:round;stroke-linejoin:round"
         id="circle1266"
         cx="111.71866"
         cy="69.423264"
         r="1.6397963" />
      <circle
         style="fill:#0000ff;stroke:none;stroke-width:0.120441;stroke-linecap:round;stroke-linejoin:round"
         id="circle1268"
         cx="111.71866"
         cy="78.39772"
         r="1.6397963" />
      <circle
         style="fill:#0000ff;stroke:none;stroke-width:0.120441;stroke-linecap:round;stroke-linejoin:round"
         id="circle1270"
         cx="111.71866"
         cy="87.372177"
         r="1.6397963" />
      <path
         style="fill:none;stroke:#000000;stroke-width:0.265;stroke-linecap:butt;stroke-linejoin:miter;stroke-miterlimit:4;stroke-dasharray:none;stroke-opacity:1;marker-end:url(#marker1288)"
         d="M 90.94992,68.28458 108.92379,52.734508"
         id="path1272"
         sodipodi:nodetypes="cc" />
      <path
         style="fill:none;stroke:#000000;stroke-width:0.265;stroke-linecap:butt;stroke-linejoin:miter;stroke-miterlimit:4;stroke-dasharray:none;stroke-opacity:1;marker-end:url(#marker1278)"
         d="m 91.138908,78.393045 17.312412,0.147542"
         id="path1274"
         sodipodi:nodetypes="cc" />
    </g>
    <g
       id="g1656"
       transform="translate(-14.967093,0.13363476)">
      <circle
         style="fill:#ff0000;stroke:none;stroke-width:0.120441;stroke-linecap:round;stroke-linejoin:round"
         id="path7"
         cx="35.012306"
         cy="51.474342"
         r="1.6397963" />
      <circle
         style="fill:#ff0000;stroke:none;stroke-width:0.120441;stroke-linecap:round;stroke-linejoin:round"
         id="circle9"
         cx="35.012306"
         cy="60.448803"
         r="1.6397963" />
      <circle
         style="fill:#0000ff;stroke:none;stroke-width:0.120441;stroke-linecap:round;stroke-linejoin:round"
         id="circle11"
         cx="35.012306"
         cy="69.423264"
         r="1.6397963" />
      <circle
         style="fill:#0000ff;stroke:none;stroke-width:0.120441;stroke-linecap:round;stroke-linejoin:round"
         id="circle13"
         cx="35.012306"
         cy="78.39772"
         r="1.6397963" />
      <circle
         style="fill:#0000ff;stroke:none;stroke-width:0.120441;stroke-linecap:round;stroke-linejoin:round"
         id="circle15"
         cx="35.012306"
         cy="87.372177"
         r="1.6397963" />
      <circle
         style="fill:#ff0000;stroke:none;stroke-width:0.120441;stroke-linecap:round;stroke-linejoin:round"
         id="circle17"
         cx="58.398388"
         cy="51.474342"
         r="1.6397963" />
      <circle
         style="fill:#ff0000;stroke:none;stroke-width:0.120441;stroke-linecap:round;stroke-linejoin:round"
         id="circle19"
         cx="58.398388"
         cy="60.448803"
         r="1.6397963" />
      <circle
         style="fill:#0000ff;stroke:none;stroke-width:0.120441;stroke-linecap:round;stroke-linejoin:round"
         id="circle21"
         cx="58.398388"
         cy="69.423264"
         r="1.6397963" />
      <circle
         style="fill:#0000ff;stroke:none;stroke-width:0.120441;stroke-linecap:round;stroke-linejoin:round"
         id="circle23"
         cx="58.398388"
         cy="78.39772"
         r="1.6397963" />
      <circle
         style="fill:#0000ff;stroke:none;stroke-width:0.120441;stroke-linecap:round;stroke-linejoin:round"
         id="circle25"
         cx="58.398388"
         cy="87.372177"
         r="1.6397963" />
      <path
         style="fill:none;stroke:#000000;stroke-width:0.265;stroke-linecap:butt;stroke-linejoin:miter;stroke-miterlimit:4;stroke-dasharray:none;stroke-opacity:1;marker-end:url(#marker1196)"
         d="M 37.818638,77.863878 55.224564,70.146469"
         id="path1192"
         sodipodi:nodetypes="cc" />
      <path
         style="fill:none;stroke:#000000;stroke-width:0.265;stroke-linecap:butt;stroke-linejoin:miter;stroke-miterlimit:4;stroke-dasharray:none;stroke-opacity:1;marker-end:url(#marker1424)"
         d="m 37.818638,70.055924 17.405926,7.717409"
         id="path1420"
         sodipodi:nodetypes="cc" />
    </g>
    <g
       id="g1780"
       transform="translate(-1.2397766e-5)">
      <circle
         style="fill:#ff0000;stroke:none;stroke-width:0.120441;stroke-linecap:round;stroke-linejoin:round"
         id="circle1508"
         cx="140.45013"
         cy="51.474342"
         r="1.6397963" />
      <circle
         style="fill:#ff0000;stroke:none;stroke-width:0.120441;stroke-linecap:round;stroke-linejoin:round"
         id="circle1510"
         cx="140.45013"
         cy="60.448803"
         r="1.6397963" />
      <circle
         style="fill:#0000ff;stroke:none;stroke-width:0.120441;stroke-linecap:round;stroke-linejoin:round"
         id="circle1512"
         cx="140.45013"
         cy="69.423264"
         r="1.6397963" />
      <circle
         style="fill:#0000ff;stroke:none;stroke-width:0.120441;stroke-linecap:round;stroke-linejoin:round"
         id="circle1514"
         cx="140.45013"
         cy="78.39772"
         r="1.6397963" />
      <circle
         style="fill:#0000ff;stroke:none;stroke-width:0.120441;stroke-linecap:round;stroke-linejoin:round"
         id="circle1516"
         cx="140.45013"
         cy="87.372177"
         r="1.6397963" />
      <circle
         style="fill:#ff0000;stroke:none;stroke-width:0.120441;stroke-linecap:round;stroke-linejoin:round"
         id="circle1518"
         cx="163.83621"
         cy="51.474342"
         r="1.6397963" />
      <circle
         style="fill:#ff0000;stroke:none;stroke-width:0.120441;stroke-linecap:round;stroke-linejoin:round"
         id="circle1520"
         cx="163.83621"
         cy="60.448803"
         r="1.6397963" />
      <circle
         style="fill:#0000ff;stroke:none;stroke-width:0.120441;stroke-linecap:round;stroke-linejoin:round"
         id="circle1522"
         cx="163.83621"
         cy="69.423264"
         r="1.6397963" />
      <circle
         style="fill:#0000ff;stroke:none;stroke-width:0.120441;stroke-linecap:round;stroke-linejoin:round"
         id="circle1524"
         cx="163.83621"
         cy="78.39772"
         r="1.6397963" />
      <circle
         style="fill:#0000ff;stroke:none;stroke-width:0.120441;stroke-linecap:round;stroke-linejoin:round"
         id="circle1526"
         cx="163.83621"
         cy="87.372177"
         r="1.6397963" />
      <path
         style="fill:none;stroke:#000000;stroke-width:0.265;stroke-linecap:butt;stroke-linejoin:miter;stroke-miterlimit:4;stroke-dasharray:none;stroke-opacity:1;marker-end:url(#marker1544)"
         d="m 143.06748,52.49303 17.9023,25.245748"
         id="path1528"
         sodipodi:nodetypes="cc" />
      <path
         style="fill:none;stroke:#000000;stroke-width:0.265;stroke-linecap:butt;stroke-linejoin:miter;stroke-miterlimit:4;stroke-dasharray:none;stroke-opacity:1;marker-end:url(#marker1534)"
         d="m 143.25647,78.393045 17.8078,-24.918136"
         id="path1530"
         sodipodi:nodetypes="cc" />
    </g>
    <g
       id="g2696"
       transform="translate(-7.8865561,-1.2869214)">
      <g
         transform="matrix(0.561795,0,0,0.561795,58.165027,65.152336)"
         ns11:version="1.3.0"
         ns11:texconverter="pdflatex"
         ns11:pdfconverter="inkscape"
         ns11:text="conjugate"
         ns11:preamble="C:\Users\Way Yan\AppData\Roaming\inkscape\extensions\textext\default_packages.tex"
         ns11:scale="1.5924888217333533"
         ns11:alignment="middle center"
         ns11:inkscapeversion="1.0.1"
         ns11:jacobian_sqrt="0.561795"
         id="g2277">
        <defs
           id="id-bdc202fa-bfd9-49ea-a594-6e933c17f887">
          <g
             id="id-2accd254-4a25-4f17-b02c-879bd3c55ff1">
            <symbol
               overflow="visible"
               id="id-6063d63e-f4ba-4b69-b4bd-fef162bd74fc">
              <path
                 style="stroke:none;stroke-width:0"
                 d=""
                 id="id-1c8ef5cd-838c-446a-9b52-07416d8e2538" />
            </symbol>
            <symbol
               overflow="visible"
               id="id-9ffdaef8-8d8f-435e-9b00-b2bd24e94c3c">
              <path
                 style="stroke:none;stroke-width:0"
                 d="m 1.171875,-2.171875 c 0,-1.625 0.8125,-2.046875 1.34375,-2.046875 0.09375,0 0.71875,0.015625 1.0625,0.375 -0.40625,0.03125 -0.46875,0.328125 -0.46875,0.453125 0,0.265625 0.1875,0.453125 0.453125,0.453125 0.265625,0 0.46875,-0.15625 0.46875,-0.46875 0,-0.671875 -0.765625,-1.0625 -1.53125,-1.0625 -1.25,0 -2.15625,1.078125 -2.15625,2.3125 0,1.28125 0.984375,2.265625 2.140625,2.265625 1.328125,0 1.65625,-1.203125 1.65625,-1.296875 0,-0.09375 -0.109375,-0.09375 -0.140625,-0.09375 -0.078125,0 -0.109375,0.03125 -0.125,0.09375 -0.28125,0.921875 -0.9375,1.046875 -1.296875,1.046875 -0.53125,0 -1.40625,-0.421875 -1.40625,-2.03125 z m 0,0"
                 id="id-ebb064a6-19dc-4ba0-bfec-bda09aabb84b" />
            </symbol>
            <symbol
               overflow="visible"
               id="id-95c8338c-a46b-4fbd-909b-08d08145830f">
              <path
                 style="stroke:none;stroke-width:0"
                 d="M 4.6875,-2.140625 C 4.6875,-3.40625 3.703125,-4.46875 2.5,-4.46875 c -1.25,0 -2.21875,1.09375 -2.21875,2.328125 0,1.296875 1.03125,2.25 2.203125,2.25 1.203125,0 2.203125,-0.984375 2.203125,-2.25 z m -2.1875,2 c -0.4375,0 -0.875,-0.203125 -1.140625,-0.671875 -0.25,-0.4375 -0.25,-1.046875 -0.25,-1.40625 0,-0.390625 0,-0.921875 0.234375,-1.359375 C 1.609375,-4.03125 2.078125,-4.25 2.484375,-4.25 c 0.4375,0 0.859375,0.21875 1.125,0.65625 0.265625,0.421875 0.265625,1 0.265625,1.375 0,0.359375 0,0.90625 -0.21875,1.34375 C 3.421875,-0.421875 2.984375,-0.140625 2.5,-0.140625 Z m 0,0"
                 id="id-3f089669-8a8e-4e3e-a603-f1f750beb5dc" />
            </symbol>
            <symbol
               overflow="visible"
               id="id-04b71c57-37a2-44b5-98b5-3188c199adfd">
              <path
                 style="stroke:none;stroke-width:0"
                 d="M 1.09375,-3.421875 V -0.75 c 0,0.4375 -0.109375,0.4375 -0.78125,0.4375 V 0 c 0.359375,-0.015625 0.859375,-0.03125 1.140625,-0.03125 0.25,0 0.765625,0.015625 1.109375,0.03125 v -0.3125 c -0.671875,0 -0.78125,0 -0.78125,-0.4375 V -2.59375 C 1.78125,-3.625 2.5,-4.1875 3.125,-4.1875 c 0.640625,0 0.75,0.53125 0.75,1.109375 V -0.75 c 0,0.4375 -0.109375,0.4375 -0.78125,0.4375 V 0 c 0.34375,-0.015625 0.859375,-0.03125 1.125,-0.03125 0.25,0 0.78125,0.015625 1.109375,0.03125 v -0.3125 c -0.515625,0 -0.765625,0 -0.765625,-0.296875 v -1.90625 c 0,-0.859375 0,-1.15625 -0.3125,-1.515625 -0.140625,-0.171875 -0.46875,-0.375 -1.046875,-0.375 C 2.46875,-4.40625 2,-3.984375 1.71875,-3.359375 V -4.40625 L 0.3125,-4.296875 v 0.3125 c 0.703125,0 0.78125,0.0625 0.78125,0.5625 z m 0,0"
                 id="id-1188108c-d3dd-4169-a558-c1a7b9d6e999" />
            </symbol>
            <symbol
               overflow="visible"
               id="id-b76fbfd3-e278-467c-b924-575b0fa1fbdb">
              <path
                 style="stroke:none;stroke-width:0"
                 d="m 2.09375,-4.40625 -1.515625,0.109375 v 0.3125 c 0.765625,0 0.859375,0.0625 0.859375,0.5625 v 3.9375 c 0,0.453125 -0.09375,1.3125 -0.734375,1.3125 -0.046875,0 -0.28125,0 -0.53125,-0.140625 C 0.3125,1.65625 0.515625,1.515625 0.515625,1.25 0.515625,0.984375 0.34375,0.78125 0.0625,0.78125 c -0.28125,0 -0.46875,0.203125 -0.46875,0.46875 0,0.515625 0.5625,0.796875 1.140625,0.796875 C 1.46875,2.046875 2.09375,1.40625 2.09375,0.5 Z m 0,-1.734375 c 0,-0.296875 -0.234375,-0.53125 -0.53125,-0.53125 -0.28125,0 -0.53125,0.234375 -0.53125,0.53125 0,0.28125 0.25,0.53125 0.53125,0.53125 0.296875,0 0.53125,-0.25 0.53125,-0.53125 z m 0,0"
                 id="id-18af2c11-b10c-4e35-83a3-744a20cdfb36" />
            </symbol>
            <symbol
               overflow="visible"
               id="id-6edd8108-454e-4129-a4b4-0138139bba46">
              <path
                 style="stroke:none;stroke-width:0"
                 d="M 3.890625,-0.78125 V 0.109375 L 5.328125,0 V -0.3125 C 4.640625,-0.3125 4.5625,-0.375 4.5625,-0.875 v -3.53125 l -1.46875,0.109375 v 0.3125 c 0.6875,0 0.78125,0.0625 0.78125,0.5625 v 1.765625 c 0,0.875 -0.484375,1.546875 -1.21875,1.546875 -0.828125,0 -0.875,-0.46875 -0.875,-0.984375 v -3.3125 L 0.3125,-4.296875 v 0.3125 c 0.78125,0 0.78125,0.03125 0.78125,0.90625 v 1.5 c 0,0.78125 0,1.6875 1.515625,1.6875 0.5625,0 1,-0.28125 1.28125,-0.890625 z m 0,0"
                 id="id-91702be3-2288-402b-915f-5d91bc4a8a36" />
            </symbol>
            <symbol
               overflow="visible"
               id="id-a0c4a61d-8760-47e4-8b81-6e7fbf4dbe79">
              <path
                 style="stroke:none;stroke-width:0"
                 d="m 2.21875,-1.71875 c -0.875,0 -0.875,-1 -0.875,-1.21875 0,-0.265625 0.015625,-0.59375 0.15625,-0.84375 0.078125,-0.109375 0.3125,-0.390625 0.71875,-0.390625 0.859375,0 0.859375,0.984375 0.859375,1.21875 0,0.265625 0,0.59375 -0.15625,0.84375 C 2.84375,-2 2.609375,-1.71875 2.21875,-1.71875 Z M 1.0625,-1.328125 c 0,-0.03125 0,-0.265625 0.15625,-0.46875 0.390625,0.28125 0.8125,0.3125 1,0.3125 0.921875,0 1.609375,-0.6875 1.609375,-1.453125 0,-0.375 -0.15625,-0.734375 -0.40625,-0.96875 C 3.78125,-4.25 4.140625,-4.296875 4.3125,-4.296875 c 0.03125,0 0.078125,0 0.109375,0.015625 C 4.3125,-4.25 4.25,-4.140625 4.25,-4.015625 c 0,0.171875 0.140625,0.28125 0.296875,0.28125 0.09375,0 0.28125,-0.0625 0.28125,-0.296875 0,-0.171875 -0.109375,-0.484375 -0.5,-0.484375 -0.203125,0 -0.640625,0.0625 -1.0625,0.46875 C 2.84375,-4.375 2.4375,-4.40625 2.21875,-4.40625 c -0.9375,0 -1.625,0.6875 -1.625,1.453125 0,0.4375 0.21875,0.8125 0.46875,1.03125 -0.125,0.140625 -0.3125,0.46875 -0.3125,0.828125 0,0.3125 0.140625,0.6875 0.453125,0.890625 -0.609375,0.15625 -0.921875,0.59375 -0.921875,0.984375 0,0.71875 0.984375,1.265625 2.203125,1.265625 1.171875,0 2.203125,-0.5 2.203125,-1.28125 0,-0.34375 -0.125,-0.859375 -0.640625,-1.140625 -0.53125,-0.265625 -1.109375,-0.265625 -1.71875,-0.265625 -0.25,0 -0.671875,0 -0.75,-0.015625 C 1.265625,-0.703125 1.0625,-1 1.0625,-1.328125 Z M 2.5,1.828125 c -1.015625,0 -1.703125,-0.515625 -1.703125,-1.046875 0,-0.453125 0.375,-0.828125 0.8125,-0.84375 h 0.59375 c 0.859375,0 1.96875,0 1.96875,0.84375 0,0.546875 -0.703125,1.046875 -1.671875,1.046875 z m 0,0"
                 id="id-fd679e9f-7c9f-442e-a343-b15d27b6ea83" />
            </symbol>
            <symbol
               overflow="visible"
               id="id-5f8349e5-0769-470d-a4c7-a3b352eb1b92">
              <path
                 style="stroke:none;stroke-width:0"
                 d="m 3.3125,-0.75 c 0.046875,0.390625 0.3125,0.8125 0.78125,0.8125 0.21875,0 0.828125,-0.140625 0.828125,-0.953125 v -0.5625 h -0.25 v 0.5625 c 0,0.578125 -0.25,0.640625 -0.359375,0.640625 -0.328125,0 -0.375,-0.453125 -0.375,-0.5 v -1.984375 c 0,-0.421875 0,-0.8125 -0.359375,-1.1875 C 3.1875,-4.3125 2.6875,-4.46875 2.21875,-4.46875 c -0.828125,0 -1.515625,0.46875 -1.515625,1.125 0,0.296875 0.203125,0.46875 0.46875,0.46875 0.28125,0 0.453125,-0.203125 0.453125,-0.453125 0,-0.125 -0.046875,-0.453125 -0.515625,-0.453125 C 1.390625,-4.140625 1.875,-4.25 2.1875,-4.25 c 0.5,0 1.0625,0.390625 1.0625,1.28125 v 0.359375 c -0.515625,0.03125 -1.203125,0.0625 -1.828125,0.359375 -0.75,0.34375 -1,0.859375 -1,1.296875 0,0.8125 0.96875,1.0625 1.59375,1.0625 0.65625,0 1.109375,-0.40625 1.296875,-0.859375 z M 3.25,-2.390625 v 1 c 0,0.9375 -0.71875,1.28125 -1.171875,1.28125 -0.484375,0 -0.890625,-0.34375 -0.890625,-0.84375 0,-0.546875 0.421875,-1.375 2.0625,-1.4375 z m 0,0"
                 id="id-36c61d2c-0b51-4047-881d-19a27a83dfae" />
            </symbol>
            <symbol
               overflow="visible"
               id="id-820afd65-8280-4aea-bca4-f6f7ce1e41ca">
              <path
                 style="stroke:none;stroke-width:0"
                 d="m 1.71875,-3.984375 h 1.4375 v -0.3125 H 1.71875 V -6.125 h -0.25 c 0,0.8125 -0.296875,1.875 -1.28125,1.921875 v 0.21875 h 0.84375 v 2.75 c 0,1.21875 0.9375,1.34375 1.296875,1.34375 0.703125,0 0.984375,-0.703125 0.984375,-1.34375 v -0.5625 h -0.25 V -1.25 c 0,0.734375 -0.296875,1.109375 -0.671875,1.109375 -0.671875,0 -0.671875,-0.90625 -0.671875,-1.078125 z m 0,0"
                 id="id-b035de58-eb3a-49e2-be58-01624d76d542" />
            </symbol>
            <symbol
               overflow="visible"
               id="id-1e65fda8-57a4-4dfc-bb6f-b73cac2d5652">
              <path
                 style="stroke:none;stroke-width:0"
                 d="M 1.109375,-2.515625 C 1.171875,-4 2.015625,-4.25 2.359375,-4.25 c 1.015625,0 1.125,1.34375 1.125,1.734375 z m 0,0.21875 h 2.78125 c 0.21875,0 0.25,0 0.25,-0.21875 0,-0.984375 -0.546875,-1.953125 -1.78125,-1.953125 -1.15625,0 -2.078125,1.03125 -2.078125,2.28125 0,1.328125 1.046875,2.296875 2.1875,2.296875 C 3.6875,0.109375 4.140625,-1 4.140625,-1.1875 4.140625,-1.28125 4.0625,-1.3125 4,-1.3125 c -0.078125,0 -0.109375,0.0625 -0.125,0.140625 -0.34375,1.03125 -1.25,1.03125 -1.34375,1.03125 -0.5,0 -0.890625,-0.296875 -1.125,-0.671875 -0.296875,-0.46875 -0.296875,-1.125 -0.296875,-1.484375 z m 0,0"
                 id="id-52ccefc4-de95-4e25-aae0-9d135a7c75d3" />
            </symbol>
          </g>
        </defs>
        <g
           id="id-3ae4d5c1-b947-4eea-b5d4-cf7bf61a06d0"
           transform="translate(-149.056,-128.093)">
          <g
             style="fill:#000000;fill-opacity:1"
             id="id-652503e8-eac1-4b40-aee1-1187f0ebc789">
            <g
               transform="translate(148.712,134.765)"
               id="g2249">
              <path
                 style="stroke:none;stroke-width:0"
                 d="m 1.171875,-2.171875 c 0,-1.625 0.8125,-2.046875 1.34375,-2.046875 0.09375,0 0.71875,0.015625 1.0625,0.375 -0.40625,0.03125 -0.46875,0.328125 -0.46875,0.453125 0,0.265625 0.1875,0.453125 0.453125,0.453125 0.265625,0 0.46875,-0.15625 0.46875,-0.46875 0,-0.671875 -0.765625,-1.0625 -1.53125,-1.0625 -1.25,0 -2.15625,1.078125 -2.15625,2.3125 0,1.28125 0.984375,2.265625 2.140625,2.265625 1.328125,0 1.65625,-1.203125 1.65625,-1.296875 0,-0.09375 -0.109375,-0.09375 -0.140625,-0.09375 -0.078125,0 -0.109375,0.03125 -0.125,0.09375 -0.28125,0.921875 -0.9375,1.046875 -1.296875,1.046875 -0.53125,0 -1.40625,-0.421875 -1.40625,-2.03125 z m 0,0"
                 id="id-db235b15-380c-47da-98e8-ce5ededc8f90" />
            </g>
            <g
               transform="translate(153.139,134.765)"
               id="g2252">
              <path
                 style="stroke:none;stroke-width:0"
                 d="M 4.6875,-2.140625 C 4.6875,-3.40625 3.703125,-4.46875 2.5,-4.46875 c -1.25,0 -2.21875,1.09375 -2.21875,2.328125 0,1.296875 1.03125,2.25 2.203125,2.25 1.203125,0 2.203125,-0.984375 2.203125,-2.25 z m -2.1875,2 c -0.4375,0 -0.875,-0.203125 -1.140625,-0.671875 -0.25,-0.4375 -0.25,-1.046875 -0.25,-1.40625 0,-0.390625 0,-0.921875 0.234375,-1.359375 C 1.609375,-4.03125 2.078125,-4.25 2.484375,-4.25 c 0.4375,0 0.859375,0.21875 1.125,0.65625 0.265625,0.421875 0.265625,1 0.265625,1.375 0,0.359375 0,0.90625 -0.21875,1.34375 C 3.421875,-0.421875 2.984375,-0.140625 2.5,-0.140625 Z m 0,0"
                 id="id-d644363f-c7a4-4ca6-b5c2-80b6f32c13db" />
            </g>
            <g
               transform="translate(158.121,134.765)"
               id="g2255">
              <path
                 style="stroke:none;stroke-width:0"
                 d="M 1.09375,-3.421875 V -0.75 c 0,0.4375 -0.109375,0.4375 -0.78125,0.4375 V 0 c 0.359375,-0.015625 0.859375,-0.03125 1.140625,-0.03125 0.25,0 0.765625,0.015625 1.109375,0.03125 v -0.3125 c -0.671875,0 -0.78125,0 -0.78125,-0.4375 V -2.59375 C 1.78125,-3.625 2.5,-4.1875 3.125,-4.1875 c 0.640625,0 0.75,0.53125 0.75,1.109375 V -0.75 c 0,0.4375 -0.109375,0.4375 -0.78125,0.4375 V 0 c 0.34375,-0.015625 0.859375,-0.03125 1.125,-0.03125 0.25,0 0.78125,0.015625 1.109375,0.03125 v -0.3125 c -0.515625,0 -0.765625,0 -0.765625,-0.296875 v -1.90625 c 0,-0.859375 0,-1.15625 -0.3125,-1.515625 -0.140625,-0.171875 -0.46875,-0.375 -1.046875,-0.375 C 2.46875,-4.40625 2,-3.984375 1.71875,-3.359375 V -4.40625 L 0.3125,-4.296875 v 0.3125 c 0.703125,0 0.78125,0.0625 0.78125,0.5625 z m 0,0"
                 id="id-90b97b1d-fe71-4ec3-989e-2184f4ec2cf8" />
            </g>
            <g
               transform="translate(163.656,134.765)"
               id="g2258">
              <path
                 style="stroke:none;stroke-width:0"
                 d="m 2.09375,-4.40625 -1.515625,0.109375 v 0.3125 c 0.765625,0 0.859375,0.0625 0.859375,0.5625 v 3.9375 c 0,0.453125 -0.09375,1.3125 -0.734375,1.3125 -0.046875,0 -0.28125,0 -0.53125,-0.140625 C 0.3125,1.65625 0.515625,1.515625 0.515625,1.25 0.515625,0.984375 0.34375,0.78125 0.0625,0.78125 c -0.28125,0 -0.46875,0.203125 -0.46875,0.46875 0,0.515625 0.5625,0.796875 1.140625,0.796875 C 1.46875,2.046875 2.09375,1.40625 2.09375,0.5 Z m 0,-1.734375 c 0,-0.296875 -0.234375,-0.53125 -0.53125,-0.53125 -0.28125,0 -0.53125,0.234375 -0.53125,0.53125 0,0.28125 0.25,0.53125 0.53125,0.53125 0.296875,0 0.53125,-0.25 0.53125,-0.53125 z m 0,0"
                 id="id-16c4c4ba-9f9c-4180-92fd-4b8eaeedec8f" />
            </g>
            <g
               transform="translate(166.7,134.765)"
               id="g2261">
              <path
                 style="stroke:none;stroke-width:0"
                 d="M 3.890625,-0.78125 V 0.109375 L 5.328125,0 V -0.3125 C 4.640625,-0.3125 4.5625,-0.375 4.5625,-0.875 v -3.53125 l -1.46875,0.109375 v 0.3125 c 0.6875,0 0.78125,0.0625 0.78125,0.5625 v 1.765625 c 0,0.875 -0.484375,1.546875 -1.21875,1.546875 -0.828125,0 -0.875,-0.46875 -0.875,-0.984375 v -3.3125 L 0.3125,-4.296875 v 0.3125 c 0.78125,0 0.78125,0.03125 0.78125,0.90625 v 1.5 c 0,0.78125 0,1.6875 1.515625,1.6875 0.5625,0 1,-0.28125 1.28125,-0.890625 z m 0,0"
                 id="id-7890657d-1ca2-401c-946e-5d0b0564a8d3" />
            </g>
            <g
               transform="translate(172.236,134.765)"
               id="g2264">
              <path
                 style="stroke:none;stroke-width:0"
                 d="m 2.21875,-1.71875 c -0.875,0 -0.875,-1 -0.875,-1.21875 0,-0.265625 0.015625,-0.59375 0.15625,-0.84375 0.078125,-0.109375 0.3125,-0.390625 0.71875,-0.390625 0.859375,0 0.859375,0.984375 0.859375,1.21875 0,0.265625 0,0.59375 -0.15625,0.84375 C 2.84375,-2 2.609375,-1.71875 2.21875,-1.71875 Z M 1.0625,-1.328125 c 0,-0.03125 0,-0.265625 0.15625,-0.46875 0.390625,0.28125 0.8125,0.3125 1,0.3125 0.921875,0 1.609375,-0.6875 1.609375,-1.453125 0,-0.375 -0.15625,-0.734375 -0.40625,-0.96875 C 3.78125,-4.25 4.140625,-4.296875 4.3125,-4.296875 c 0.03125,0 0.078125,0 0.109375,0.015625 C 4.3125,-4.25 4.25,-4.140625 4.25,-4.015625 c 0,0.171875 0.140625,0.28125 0.296875,0.28125 0.09375,0 0.28125,-0.0625 0.28125,-0.296875 0,-0.171875 -0.109375,-0.484375 -0.5,-0.484375 -0.203125,0 -0.640625,0.0625 -1.0625,0.46875 C 2.84375,-4.375 2.4375,-4.40625 2.21875,-4.40625 c -0.9375,0 -1.625,0.6875 -1.625,1.453125 0,0.4375 0.21875,0.8125 0.46875,1.03125 -0.125,0.140625 -0.3125,0.46875 -0.3125,0.828125 0,0.3125 0.140625,0.6875 0.453125,0.890625 -0.609375,0.15625 -0.921875,0.59375 -0.921875,0.984375 0,0.71875 0.984375,1.265625 2.203125,1.265625 1.171875,0 2.203125,-0.5 2.203125,-1.28125 0,-0.34375 -0.125,-0.859375 -0.640625,-1.140625 -0.53125,-0.265625 -1.109375,-0.265625 -1.71875,-0.265625 -0.25,0 -0.671875,0 -0.75,-0.015625 C 1.265625,-0.703125 1.0625,-1 1.0625,-1.328125 Z M 2.5,1.828125 c -1.015625,0 -1.703125,-0.515625 -1.703125,-1.046875 0,-0.453125 0.375,-0.828125 0.8125,-0.84375 h 0.59375 c 0.859375,0 1.96875,0 1.96875,0.84375 0,0.546875 -0.703125,1.046875 -1.671875,1.046875 z m 0,0"
                 id="id-896ac7b4-123b-4d10-940a-35a9ed37eb69" />
            </g>
            <g
               transform="translate(177.217,134.765)"
               id="g2267">
              <path
                 style="stroke:none;stroke-width:0"
                 d="m 3.3125,-0.75 c 0.046875,0.390625 0.3125,0.8125 0.78125,0.8125 0.21875,0 0.828125,-0.140625 0.828125,-0.953125 v -0.5625 h -0.25 v 0.5625 c 0,0.578125 -0.25,0.640625 -0.359375,0.640625 -0.328125,0 -0.375,-0.453125 -0.375,-0.5 v -1.984375 c 0,-0.421875 0,-0.8125 -0.359375,-1.1875 C 3.1875,-4.3125 2.6875,-4.46875 2.21875,-4.46875 c -0.828125,0 -1.515625,0.46875 -1.515625,1.125 0,0.296875 0.203125,0.46875 0.46875,0.46875 0.28125,0 0.453125,-0.203125 0.453125,-0.453125 0,-0.125 -0.046875,-0.453125 -0.515625,-0.453125 C 1.390625,-4.140625 1.875,-4.25 2.1875,-4.25 c 0.5,0 1.0625,0.390625 1.0625,1.28125 v 0.359375 c -0.515625,0.03125 -1.203125,0.0625 -1.828125,0.359375 -0.75,0.34375 -1,0.859375 -1,1.296875 0,0.8125 0.96875,1.0625 1.59375,1.0625 0.65625,0 1.109375,-0.40625 1.296875,-0.859375 z M 3.25,-2.390625 v 1 c 0,0.9375 -0.71875,1.28125 -1.171875,1.28125 -0.484375,0 -0.890625,-0.34375 -0.890625,-0.84375 0,-0.546875 0.421875,-1.375 2.0625,-1.4375 z m 0,0"
                 id="id-bf66173a-6b99-425a-9f8e-27a6a9df39a6" />
            </g>
            <g
               transform="translate(182.198,134.765)"
               id="g2270">
              <path
                 style="stroke:none;stroke-width:0"
                 d="m 1.71875,-3.984375 h 1.4375 v -0.3125 H 1.71875 V -6.125 h -0.25 c 0,0.8125 -0.296875,1.875 -1.28125,1.921875 v 0.21875 h 0.84375 v 2.75 c 0,1.21875 0.9375,1.34375 1.296875,1.34375 0.703125,0 0.984375,-0.703125 0.984375,-1.34375 v -0.5625 h -0.25 V -1.25 c 0,0.734375 -0.296875,1.109375 -0.671875,1.109375 -0.671875,0 -0.671875,-0.90625 -0.671875,-1.078125 z m 0,0"
                 id="id-3150d56d-c1fd-4b02-b24f-a580133ec5c0" />
            </g>
            <g
               transform="translate(186.073,134.765)"
               id="g2273">
              <path
                 style="stroke:none;stroke-width:0"
                 d="M 1.109375,-2.515625 C 1.171875,-4 2.015625,-4.25 2.359375,-4.25 c 1.015625,0 1.125,1.34375 1.125,1.734375 z m 0,0.21875 h 2.78125 c 0.21875,0 0.25,0 0.25,-0.21875 0,-0.984375 -0.546875,-1.953125 -1.78125,-1.953125 -1.15625,0 -2.078125,1.03125 -2.078125,2.28125 0,1.328125 1.046875,2.296875 2.1875,2.296875 C 3.6875,0.109375 4.140625,-1 4.140625,-1.1875 4.140625,-1.28125 4.0625,-1.3125 4,-1.3125 c -0.078125,0 -0.109375,0.0625 -0.125,0.140625 -0.34375,1.03125 -1.25,1.03125 -1.34375,1.03125 -0.5,0 -0.890625,-0.296875 -1.125,-0.671875 -0.296875,-0.46875 -0.296875,-1.125 -0.296875,-1.484375 z m 0,0"
                 id="id-fee5cd76-a372-4ec4-a8c8-379109832942" />
            </g>
          </g>
        </g>
      </g>
      <g
         transform="matrix(0.561795,0,0,0.561795,66.9066,71.229287)"
         ns11:version="1.3.0"
         ns11:texconverter="pdflatex"
         ns11:pdfconverter="inkscape"
         ns11:text="by"
         ns11:preamble="C:\Users\Way Yan\AppData\Roaming\inkscape\extensions\textext\default_packages.tex"
         ns11:scale="1.5924888217333533"
         ns11:alignment="middle center"
         ns11:inkscapeversion="1.0.1"
         ns11:jacobian_sqrt="0.561795"
         id="g2500">
        <defs
           id="id-9115f164-acfb-4876-9ab1-82a1b247a81a">
          <g
             id="id-d10df6fc-9b38-4512-9728-d867a87a23e1">
            <symbol
               overflow="visible"
               id="id-3493327b-bcc6-4b23-8704-45debb5d7d4c">
              <path
                 style="stroke:none"
                 d=""
                 id="id-5e1c1540-636c-49ef-81a0-437f7cefb402" />
            </symbol>
            <symbol
               overflow="visible"
               id="id-d5470dbc-c738-4f42-b576-15f94084254a">
              <path
                 style="stroke:none"
                 d="m 1.71875,-3.765625 v -3.15625 L 0.28125,-6.8125 V -6.5 c 0.703125,0 0.78125,0.0625 0.78125,0.5625 V 0 h 0.25 c 0,-0.015625 0.078125,-0.15625 0.359375,-0.625 0.140625,0.234375 0.5625,0.734375 1.296875,0.734375 1.1875,0 2.21875,-0.984375 2.21875,-2.265625 0,-1.265625 -0.96875,-2.25 -2.109375,-2.25 -0.78125,0 -1.203125,0.46875 -1.359375,0.640625 z m 0.03125,2.625 V -3.1875 c 0,-0.1875 0,-0.203125 0.109375,-0.359375 C 2.25,-4.109375 2.796875,-4.1875 3.03125,-4.1875 c 0.453125,0 0.8125,0.265625 1.046875,0.640625 0.265625,0.40625 0.28125,0.96875 0.28125,1.390625 0,0.359375 -0.015625,0.953125 -0.296875,1.40625 -0.21875,0.3125 -0.59375,0.640625 -1.125,0.640625 -0.453125,0 -0.8125,-0.234375 -1.046875,-0.609375 C 1.75,-0.921875 1.75,-0.953125 1.75,-1.140625 Z m 0,0"
                 id="id-4730ce89-b27d-4540-9ab6-b2bb76ac9ecf" />
            </symbol>
            <symbol
               overflow="visible"
               id="id-82667972-34e4-4c5e-b94a-53f1ae67f2dc">
              <path
                 style="stroke:none"
                 d="m 4.140625,-3.34375 c 0.25,-0.640625 0.765625,-0.640625 0.921875,-0.640625 v -0.3125 c -0.234375,0.015625 -0.515625,0.03125 -0.75,0.03125 -0.171875,0 -0.640625,-0.015625 -0.859375,-0.03125 v 0.3125 c 0.3125,0 0.46875,0.171875 0.46875,0.421875 0,0.109375 -0.015625,0.125 -0.0625,0.25 L 2.84375,-0.875 1.75,-3.546875 C 1.703125,-3.65625 1.6875,-3.6875 1.6875,-3.734375 c 0,-0.25 0.359375,-0.25 0.5625,-0.25 v -0.3125 c -0.265625,0.015625 -0.921875,0.03125 -1.09375,0.03125 -0.265625,0 -0.671875,-0.015625 -0.96875,-0.03125 v 0.3125 c 0.484375,0 0.671875,0 0.8125,0.34375 L 2.5,0 C 2.4375,0.125 2.296875,0.453125 2.25,0.59375 2.03125,1.140625 1.75,1.828125 1.109375,1.828125 c -0.046875,0 -0.28125,0 -0.46875,-0.1875 0.3125,-0.03125 0.390625,-0.25 0.390625,-0.421875 0,-0.25 -0.1875,-0.40625 -0.421875,-0.40625 -0.203125,0 -0.421875,0.125 -0.421875,0.421875 0,0.453125 0.421875,0.8125 0.921875,0.8125 0.625,0 1.03125,-0.578125 1.265625,-1.140625 z m 0,0"
                 id="id-30da369e-de97-4c4f-ab6c-9606b6611a2d" />
            </symbol>
          </g>
        </defs>
        <g
           id="id-1570b834-e609-4320-904b-13c7865ea5cb"
           transform="translate(-148.993,-127.843)">
          <g
             style="fill:#000000;fill-opacity:1"
             id="id-4409df41-f0c5-49bb-98c8-76ae96bc5370">
            <g
               transform="translate(148.712,134.765)"
               id="g2610">
              <path
                 style="stroke:none"
                 d="m 1.71875,-3.765625 v -3.15625 L 0.28125,-6.8125 V -6.5 c 0.703125,0 0.78125,0.0625 0.78125,0.5625 V 0 h 0.25 c 0,-0.015625 0.078125,-0.15625 0.359375,-0.625 0.140625,0.234375 0.5625,0.734375 1.296875,0.734375 1.1875,0 2.21875,-0.984375 2.21875,-2.265625 0,-1.265625 -0.96875,-2.25 -2.109375,-2.25 -0.78125,0 -1.203125,0.46875 -1.359375,0.640625 z m 0.03125,2.625 V -3.1875 c 0,-0.1875 0,-0.203125 0.109375,-0.359375 C 2.25,-4.109375 2.796875,-4.1875 3.03125,-4.1875 c 0.453125,0 0.8125,0.265625 1.046875,0.640625 0.265625,0.40625 0.28125,0.96875 0.28125,1.390625 0,0.359375 -0.015625,0.953125 -0.296875,1.40625 -0.21875,0.3125 -0.59375,0.640625 -1.125,0.640625 -0.453125,0 -0.8125,-0.234375 -1.046875,-0.609375 C 1.75,-0.921875 1.75,-0.953125 1.75,-1.140625 Z m 0,0"
                 id="id-cf26444b-2644-42e0-885c-f993832bdf51" />
            </g>
          </g>
          <g
             style="fill:#000000;fill-opacity:1"
             id="id-5608845e-0d6a-4670-b957-4a8e65f88003">
            <g
               transform="translate(153.968,134.765)"
               id="g2614">
              <path
                 style="stroke:none"
                 d="m 4.140625,-3.34375 c 0.25,-0.640625 0.765625,-0.640625 0.921875,-0.640625 v -0.3125 c -0.234375,0.015625 -0.515625,0.03125 -0.75,0.03125 -0.171875,0 -0.640625,-0.015625 -0.859375,-0.03125 v 0.3125 c 0.3125,0 0.46875,0.171875 0.46875,0.421875 0,0.109375 -0.015625,0.125 -0.0625,0.25 L 2.84375,-0.875 1.75,-3.546875 C 1.703125,-3.65625 1.6875,-3.6875 1.6875,-3.734375 c 0,-0.25 0.359375,-0.25 0.5625,-0.25 v -0.3125 c -0.265625,0.015625 -0.921875,0.03125 -1.09375,0.03125 -0.265625,0 -0.671875,-0.015625 -0.96875,-0.03125 v 0.3125 c 0.484375,0 0.671875,0 0.8125,0.34375 L 2.5,0 C 2.4375,0.125 2.296875,0.453125 2.25,0.59375 2.03125,1.140625 1.75,1.828125 1.109375,1.828125 c -0.046875,0 -0.28125,0 -0.46875,-0.1875 0.3125,-0.03125 0.390625,-0.25 0.390625,-0.421875 0,-0.25 -0.1875,-0.40625 -0.421875,-0.40625 -0.203125,0 -0.421875,0.125 -0.421875,0.421875 0,0.453125 0.421875,0.8125 0.921875,0.8125 0.625,0 1.03125,-0.578125 1.265625,-1.140625 z m 0,0"
                 id="id-e7eb87e7-f8fd-45e9-a307-2d48cbf69b41" />
            </g>
          </g>
        </g>
      </g>
    </g>
    <g
       transform="matrix(0.561795,0,0,0.561795,27.84182,97.671196)"
       ns11:version="1.3.0"
       ns11:texconverter="pdflatex"
       ns11:pdfconverter="inkscape"
       ns11:text="$(ij)$"
       ns11:preamble="C:\Users\Way Yan\AppData\Roaming\inkscape\extensions\textext\default_packages.tex"
       ns11:scale="1.5924888217333533"
       ns11:alignment="middle center"
       ns11:inkscapeversion="1.0.1"
       ns11:jacobian_sqrt="0.561795"
       id="g3024">
      <defs
         id="id-eec8409f-48aa-4578-aa42-48938dfeafe3">
        <g
           id="id-2b031c39-9d30-4de7-b5e9-a55e447d964a">
          <symbol
             overflow="visible"
             id="id-719dc86a-b7d2-4fb1-baa8-2658ed57dcaa">
            <path
               style="stroke:none;stroke-width:0"
               d=""
               id="id-b0c4387c-6b0a-46f9-8ae8-8aaabbebbc7e" />
          </symbol>
          <symbol
             overflow="visible"
             id="id-7720dc30-a401-4ece-bafe-67428d6651d8">
            <path
               style="stroke:none;stroke-width:0"
               d="m 3.296875,2.390625 c 0,-0.03125 0,-0.046875 -0.171875,-0.21875 C 1.890625,0.921875 1.5625,-0.96875 1.5625,-2.5 c 0,-1.734375 0.375,-3.46875 1.609375,-4.703125 0.125,-0.125 0.125,-0.140625 0.125,-0.171875 0,-0.078125 -0.03125,-0.109375 -0.09375,-0.109375 -0.109375,0 -1,0.6875 -1.59375,1.953125 -0.5,1.09375 -0.625,2.203125 -0.625,3.03125 0,0.78125 0.109375,1.984375 0.65625,3.125 C 2.25,1.84375 3.09375,2.5 3.203125,2.5 c 0.0625,0 0.09375,-0.03125 0.09375,-0.109375 z m 0,0"
               id="id-7f7e7c0f-beaa-4140-85d4-d77a21cfb5ec" />
          </symbol>
          <symbol
             overflow="visible"
             id="id-4db04e53-bb19-4b75-a7d8-f8948605a81f">
            <path
               style="stroke:none;stroke-width:0"
               d="m 2.875,-2.5 c 0,-0.765625 -0.109375,-1.96875 -0.65625,-3.109375 -0.59375,-1.21875 -1.453125,-1.875 -1.546875,-1.875 -0.0625,0 -0.109375,0.046875 -0.109375,0.109375 0,0.03125 0,0.046875 0.1875,0.234375 0.984375,0.984375 1.546875,2.5625 1.546875,4.640625 0,1.71875 -0.359375,3.46875 -1.59375,4.71875 C 0.5625,2.34375 0.5625,2.359375 0.5625,2.390625 0.5625,2.453125 0.609375,2.5 0.671875,2.5 0.765625,2.5 1.671875,1.8125 2.25,0.546875 2.765625,-0.546875 2.875,-1.65625 2.875,-2.5 Z m 0,0"
               id="id-2d35ab41-1b21-4bd4-9752-5706b90077ef" />
          </symbol>
          <symbol
             overflow="visible"
             id="id-a4e4e2da-a164-459a-ad3c-5b9e7100679c">
            <path
               style="stroke:none;stroke-width:0"
               d=""
               id="id-1dcc1225-5e51-4570-b52f-7f409f90e2a5" />
          </symbol>
          <symbol
             overflow="visible"
             id="id-ef7ea3d6-bd84-4b07-b2db-1396f14a9ef8">
            <path
               style="stroke:none;stroke-width:0"
               d="m 2.828125,-6.234375 c 0,-0.203125 -0.140625,-0.359375 -0.359375,-0.359375 -0.28125,0 -0.546875,0.265625 -0.546875,0.53125 0,0.1875 0.140625,0.359375 0.375,0.359375 0.234375,0 0.53125,-0.234375 0.53125,-0.53125 z m -0.75,3.75 c 0.109375,-0.28125 0.109375,-0.3125 0.21875,-0.578125 0.078125,-0.203125 0.125,-0.34375 0.125,-0.53125 0,-0.4375 -0.3125,-0.8125 -0.8125,-0.8125 -0.9375,0 -1.3125,1.453125 -1.3125,1.53125 0,0.109375 0.09375,0.109375 0.109375,0.109375 0.109375,0 0.109375,-0.03125 0.15625,-0.1875 0.28125,-0.9375 0.671875,-1.234375 1.015625,-1.234375 0.078125,0 0.25,0 0.25,0.3125 0,0.21875 -0.078125,0.421875 -0.109375,0.53125 -0.078125,0.25 -0.53125,1.40625 -0.6875,1.84375 -0.109375,0.25 -0.234375,0.578125 -0.234375,0.796875 0,0.46875 0.34375,0.8125 0.8125,0.8125 0.9375,0 1.3125,-1.4375 1.3125,-1.53125 0,-0.109375 -0.09375,-0.109375 -0.125,-0.109375 -0.09375,0 -0.09375,0.03125 -0.140625,0.1875 -0.1875,0.625 -0.515625,1.234375 -1.015625,1.234375 -0.171875,0 -0.25,-0.09375 -0.25,-0.328125 0,-0.25 0.0625,-0.390625 0.296875,-1 z m 0,0"
               id="id-9d42f607-49ee-4efd-a874-8b593136213c" />
          </symbol>
          <symbol
             overflow="visible"
             id="id-e04135c3-7dac-4a0f-b798-315d6540d960">
            <path
               style="stroke:none;stroke-width:0"
               d="m 3.953125,-6.234375 c 0,-0.1875 -0.140625,-0.359375 -0.375,-0.359375 -0.234375,0 -0.53125,0.234375 -0.53125,0.53125 0,0.203125 0.140625,0.359375 0.375,0.359375 0.265625,0 0.53125,-0.265625 0.53125,-0.53125 z m -2,6.734375 c -0.1875,0.75 -0.671875,1.328125 -1.21875,1.328125 -0.0625,0 -0.21875,0 -0.390625,-0.09375 0.296875,-0.0625 0.4375,-0.328125 0.4375,-0.53125 0,-0.15625 -0.109375,-0.34375 -0.375,-0.34375 -0.25,0 -0.53125,0.203125 -0.53125,0.5625 0,0.40625 0.390625,0.625 0.875,0.625 0.703125,0 1.625,-0.53125 1.875,-1.515625 L 3.53125,-3.125 c 0.0625,-0.1875 0.0625,-0.328125 0.0625,-0.359375 0,-0.578125 -0.421875,-0.921875 -0.921875,-0.921875 -1.015625,0 -1.578125,1.453125 -1.578125,1.53125 0,0.109375 0.09375,0.109375 0.109375,0.109375 0.09375,0 0.109375,-0.015625 0.1875,-0.203125 0.25,-0.609375 0.703125,-1.21875 1.25,-1.21875 0.140625,0 0.3125,0.046875 0.3125,0.453125 0,0.234375 -0.015625,0.34375 -0.0625,0.515625 z m 0,0"
               id="id-49bc1680-ad45-494a-a491-0be27c85459e" />
          </symbol>
        </g>
      </defs>
      <g
         id="id-e5bf16ec-5186-4f07-a909-7e35468d0c70"
         transform="translate(-149.696,-127.281)">
        <g
           style="fill:#000000;fill-opacity:1"
           id="id-9bfba706-e383-4fc5-a116-438dc8f5578a">
          <g
             transform="translate(148.712,134.765)"
             id="g3009">
            <path
               style="stroke:none;stroke-width:0"
               d="m 3.296875,2.390625 c 0,-0.03125 0,-0.046875 -0.171875,-0.21875 C 1.890625,0.921875 1.5625,-0.96875 1.5625,-2.5 c 0,-1.734375 0.375,-3.46875 1.609375,-4.703125 0.125,-0.125 0.125,-0.140625 0.125,-0.171875 0,-0.078125 -0.03125,-0.109375 -0.09375,-0.109375 -0.109375,0 -1,0.6875 -1.59375,1.953125 -0.5,1.09375 -0.625,2.203125 -0.625,3.03125 0,0.78125 0.109375,1.984375 0.65625,3.125 C 2.25,1.84375 3.09375,2.5 3.203125,2.5 c 0.0625,0 0.09375,-0.03125 0.09375,-0.109375 z m 0,0"
               id="id-9ff6d54b-478a-4343-96e4-eaeabe908652" />
          </g>
        </g>
        <g
           style="fill:#000000;fill-opacity:1"
           id="id-c011d21f-98a2-4c48-bb1e-04a590b36a34">
          <g
             transform="translate(152.587,134.765)"
             id="g3013">
            <path
               style="stroke:none;stroke-width:0"
               d="m 2.828125,-6.234375 c 0,-0.203125 -0.140625,-0.359375 -0.359375,-0.359375 -0.28125,0 -0.546875,0.265625 -0.546875,0.53125 0,0.1875 0.140625,0.359375 0.375,0.359375 0.234375,0 0.53125,-0.234375 0.53125,-0.53125 z m -0.75,3.75 c 0.109375,-0.28125 0.109375,-0.3125 0.21875,-0.578125 0.078125,-0.203125 0.125,-0.34375 0.125,-0.53125 0,-0.4375 -0.3125,-0.8125 -0.8125,-0.8125 -0.9375,0 -1.3125,1.453125 -1.3125,1.53125 0,0.109375 0.09375,0.109375 0.109375,0.109375 0.109375,0 0.109375,-0.03125 0.15625,-0.1875 0.28125,-0.9375 0.671875,-1.234375 1.015625,-1.234375 0.078125,0 0.25,0 0.25,0.3125 0,0.21875 -0.078125,0.421875 -0.109375,0.53125 -0.078125,0.25 -0.53125,1.40625 -0.6875,1.84375 -0.109375,0.25 -0.234375,0.578125 -0.234375,0.796875 0,0.46875 0.34375,0.8125 0.8125,0.8125 0.9375,0 1.3125,-1.4375 1.3125,-1.53125 0,-0.109375 -0.09375,-0.109375 -0.125,-0.109375 -0.09375,0 -0.09375,0.03125 -0.140625,0.1875 -0.1875,0.625 -0.515625,1.234375 -1.015625,1.234375 -0.171875,0 -0.25,-0.09375 -0.25,-0.328125 0,-0.25 0.0625,-0.390625 0.296875,-1 z m 0,0"
               id="id-c0ad19be-4deb-4b72-b5aa-b387c3082f81" />
          </g>
          <g
             transform="translate(156.019,134.765)"
             id="g3016">
            <path
               style="stroke:none;stroke-width:0"
               d="m 3.953125,-6.234375 c 0,-0.1875 -0.140625,-0.359375 -0.375,-0.359375 -0.234375,0 -0.53125,0.234375 -0.53125,0.53125 0,0.203125 0.140625,0.359375 0.375,0.359375 0.265625,0 0.53125,-0.265625 0.53125,-0.53125 z m -2,6.734375 c -0.1875,0.75 -0.671875,1.328125 -1.21875,1.328125 -0.0625,0 -0.21875,0 -0.390625,-0.09375 0.296875,-0.0625 0.4375,-0.328125 0.4375,-0.53125 0,-0.15625 -0.109375,-0.34375 -0.375,-0.34375 -0.25,0 -0.53125,0.203125 -0.53125,0.5625 0,0.40625 0.390625,0.625 0.875,0.625 0.703125,0 1.625,-0.53125 1.875,-1.515625 L 3.53125,-3.125 c 0.0625,-0.1875 0.0625,-0.328125 0.0625,-0.359375 0,-0.578125 -0.421875,-0.921875 -0.921875,-0.921875 -1.015625,0 -1.578125,1.453125 -1.578125,1.53125 0,0.109375 0.09375,0.109375 0.109375,0.109375 0.09375,0 0.109375,-0.015625 0.1875,-0.203125 0.25,-0.609375 0.703125,-1.21875 1.25,-1.21875 0.140625,0 0.3125,0.046875 0.3125,0.453125 0,0.234375 -0.015625,0.34375 -0.0625,0.515625 z m 0,0"
               id="id-f9943425-046a-441c-abed-14d6519b8c05" />
          </g>
        </g>
        <g
           style="fill:#000000;fill-opacity:1"
           id="id-76be35cd-4941-4cbe-a01e-1ad1b8caaff8">
          <g
             transform="translate(160.692,134.765)"
             id="g3020">
            <path
               style="stroke:none;stroke-width:0"
               d="m 2.875,-2.5 c 0,-0.765625 -0.109375,-1.96875 -0.65625,-3.109375 -0.59375,-1.21875 -1.453125,-1.875 -1.546875,-1.875 -0.0625,0 -0.109375,0.046875 -0.109375,0.109375 0,0.03125 0,0.046875 0.1875,0.234375 0.984375,0.984375 1.546875,2.5625 1.546875,4.640625 0,1.71875 -0.359375,3.46875 -1.59375,4.71875 C 0.5625,2.34375 0.5625,2.359375 0.5625,2.390625 0.5625,2.453125 0.609375,2.5 0.671875,2.5 0.765625,2.5 1.671875,1.8125 2.25,0.546875 2.765625,-0.546875 2.875,-1.65625 2.875,-2.5 Z m 0,0"
               id="id-32c90c99-fc00-49f9-82d9-b4af500eca9a" />
          </g>
        </g>
      </g>
    </g>
    <g
       transform="matrix(0.561795,0,0,0.561795,90.658959,98.663036)"
       ns11:version="1.3.0"
       ns11:texconverter="pdflatex"
       ns11:pdfconverter="inkscape"
       ns11:text="$g$"
       ns11:preamble="C:\Users\Way Yan\AppData\Roaming\inkscape\extensions\textext\default_packages.tex"
       ns11:scale="1.5924888217333533"
       ns11:alignment="middle center"
       ns11:inkscapeversion="1.0.1"
       ns11:jacobian_sqrt="0.561795"
       id="g3107">
      <defs
         id="id-c50f9a47-8ab7-41c8-9131-2b05018e93f3">
        <g
           id="id-e049848e-4a78-4c02-b6a1-f65087deaa92">
          <symbol
             overflow="visible"
             id="id-fcbff795-fb06-46d5-8338-527513624c48">
            <path
               style="stroke:none"
               d=""
               id="id-8587c642-713c-42a4-85d6-eab2ba82113a" />
          </symbol>
          <symbol
             overflow="visible"
             id="id-f05afc83-b0a6-4ee3-b79f-b305807c71b5">
            <path
               style="stroke:none"
               d="M 4.6875,-3.765625 C 4.703125,-3.8125 4.71875,-3.875 4.71875,-3.9375 c 0,-0.171875 -0.109375,-0.265625 -0.28125,-0.265625 -0.09375,0 -0.375,0.0625 -0.40625,0.421875 -0.1875,-0.359375 -0.53125,-0.625 -0.9375,-0.625 -1.125,0 -2.359375,1.390625 -2.359375,2.828125 0,0.984375 0.59375,1.578125 1.3125,1.578125 0.59375,0 1.0625,-0.46875 1.15625,-0.578125 L 3.21875,-0.5625 C 3.015625,0.3125 2.890625,0.734375 2.890625,0.75 2.84375,0.84375 2.515625,1.828125 1.453125,1.828125 1.265625,1.828125 0.9375,1.8125 0.65625,1.71875 0.953125,1.640625 1.0625,1.375 1.0625,1.203125 c 0,-0.15625 -0.109375,-0.34375 -0.375,-0.34375 -0.21875,0 -0.53125,0.171875 -0.53125,0.578125 0,0.40625 0.359375,0.609375 1.3125,0.609375 1.25,0 1.96875,-0.78125 2.125,-1.375 z M 3.40625,-1.28125 C 3.34375,-1.015625 3.109375,-0.765625 2.890625,-0.578125 2.6875,-0.40625 2.375,-0.21875 2.078125,-0.21875 c -0.5,0 -0.640625,-0.515625 -0.640625,-0.921875 0,-0.46875 0.28125,-1.65625 0.5625,-2.15625 C 2.265625,-3.78125 2.6875,-4.1875 3.109375,-4.1875 c 0.65625,0 0.796875,0.8125 0.796875,0.859375 0,0.046875 -0.015625,0.109375 -0.03125,0.140625 z m 0,0"
               id="id-393752a2-db7f-438a-8318-4151ca66e53c" />
          </symbol>
        </g>
      </defs>
      <g
         id="id-951e97a6-7fc5-4d7e-8a4b-b1fccaf0aade"
         transform="translate(-148.868,-130.359)">
        <g
           style="fill:#000000;fill-opacity:1"
           id="id-b2fc2396-bf11-4d12-bfa9-58d02eafd920">
          <g
             transform="translate(148.712,134.765)"
             id="g3259">
            <path
               style="stroke:none"
               d="M 4.6875,-3.765625 C 4.703125,-3.8125 4.71875,-3.875 4.71875,-3.9375 c 0,-0.171875 -0.109375,-0.265625 -0.28125,-0.265625 -0.09375,0 -0.375,0.0625 -0.40625,0.421875 -0.1875,-0.359375 -0.53125,-0.625 -0.9375,-0.625 -1.125,0 -2.359375,1.390625 -2.359375,2.828125 0,0.984375 0.59375,1.578125 1.3125,1.578125 0.59375,0 1.0625,-0.46875 1.15625,-0.578125 L 3.21875,-0.5625 C 3.015625,0.3125 2.890625,0.734375 2.890625,0.75 2.84375,0.84375 2.515625,1.828125 1.453125,1.828125 1.265625,1.828125 0.9375,1.8125 0.65625,1.71875 0.953125,1.640625 1.0625,1.375 1.0625,1.203125 c 0,-0.15625 -0.109375,-0.34375 -0.375,-0.34375 -0.21875,0 -0.53125,0.171875 -0.53125,0.578125 0,0.40625 0.359375,0.609375 1.3125,0.609375 1.25,0 1.96875,-0.78125 2.125,-1.375 z M 3.40625,-1.28125 C 3.34375,-1.015625 3.109375,-0.765625 2.890625,-0.578125 2.6875,-0.40625 2.375,-0.21875 2.078125,-0.21875 c -0.5,0 -0.640625,-0.515625 -0.640625,-0.921875 0,-0.46875 0.28125,-1.65625 0.5625,-2.15625 C 2.265625,-3.78125 2.6875,-4.1875 3.109375,-4.1875 c 0.65625,0 0.796875,0.8125 0.796875,0.859375 0,0.046875 -0.015625,0.109375 -0.03125,0.140625 z m 0,0"
               id="id-8c166e61-bc98-4fe9-97d7-8332f93e8b34" />
          </g>
        </g>
      </g>
    </g>
    <g
       transform="matrix(0.561795,0,0,0.561795,150.76947,98.500436)"
       ns11:version="1.3.0"
       ns11:texconverter="pdflatex"
       ns11:pdfconverter="inkscape"
       ns11:text="$h$"
       ns11:preamble="C:\Users\Way Yan\AppData\Roaming\inkscape\extensions\textext\default_packages.tex"
       ns11:scale="1.5924888217333533"
       ns11:alignment="middle center"
       ns11:inkscapeversion="1.0.1"
       ns11:jacobian_sqrt="0.561795"
       id="g3297">
      <defs
         id="id-4816632d-6003-4554-90e5-947c90fb4a13">
        <g
           id="id-27979c2e-ec7e-4d5a-a53d-3b1fb1098c03">
          <symbol
             overflow="visible"
             id="id-ab2021ef-95c6-4cdd-9ee6-4585c29753cc">
            <path
               style="stroke:none"
               d=""
               id="id-2297ee35-78ce-4e70-b48d-b2083dcce39d" />
          </symbol>
          <symbol
             overflow="visible"
             id="id-5bfc92d5-f401-450a-b7e5-eeee25ae3fe1">
            <path
               style="stroke:none"
               d="m 2.859375,-6.8125 c 0,0 0,-0.109375 -0.125,-0.109375 -0.234375,0 -0.953125,0.078125 -1.21875,0.109375 -0.078125,0 -0.1875,0.015625 -0.1875,0.1875 0,0.125 0.09375,0.125 0.234375,0.125 0.484375,0 0.5,0.0625 0.5,0.171875 L 2.03125,-6.125 0.59375,-0.390625 c -0.046875,0.140625 -0.046875,0.15625 -0.046875,0.21875 0,0.234375 0.203125,0.28125 0.296875,0.28125 0.15625,0 0.3125,-0.125 0.359375,-0.265625 l 0.1875,-0.75 0.21875,-0.890625 C 1.671875,-2.03125 1.734375,-2.25 1.78125,-2.46875 1.796875,-2.53125 1.890625,-2.859375 1.890625,-2.921875 1.921875,-3.015625 2.234375,-3.5625 2.578125,-3.84375 2.796875,-4 3.09375,-4.1875 3.53125,-4.1875 c 0.421875,0 0.53125,0.34375 0.53125,0.703125 0,0.53125 -0.375,1.625 -0.609375,2.234375 C 3.375,-1.03125 3.3125,-0.90625 3.3125,-0.703125 c 0,0.46875 0.359375,0.8125 0.828125,0.8125 0.9375,0 1.296875,-1.453125 1.296875,-1.53125 0,-0.109375 -0.078125,-0.109375 -0.109375,-0.109375 -0.109375,0 -0.109375,0.03125 -0.15625,0.1875 -0.140625,0.53125 -0.46875,1.234375 -1.015625,1.234375 -0.171875,0 -0.234375,-0.09375 -0.234375,-0.328125 0,-0.25 0.078125,-0.484375 0.171875,-0.703125 0.15625,-0.4375 0.609375,-1.625 0.609375,-2.203125 0,-0.640625 -0.390625,-1.0625 -1.140625,-1.0625 -0.625,0 -1.109375,0.3125 -1.484375,0.765625 z m 0,0"
               id="id-2fe44bd7-794b-4db7-b48f-b6691889e751" />
          </symbol>
        </g>
      </defs>
      <g
         id="id-1173d8d4-7033-4f4b-8323-bec46652b2a3"
         transform="translate(-149.259,-127.843)">
        <g
           style="fill:#000000;fill-opacity:1"
           id="id-9a0d8587-7c85-477a-a942-7c627d3e4e90">
          <g
             transform="translate(148.712,134.765)"
             id="g3460">
            <path
               style="stroke:none"
               d="m 2.859375,-6.8125 c 0,0 0,-0.109375 -0.125,-0.109375 -0.234375,0 -0.953125,0.078125 -1.21875,0.109375 -0.078125,0 -0.1875,0.015625 -0.1875,0.1875 0,0.125 0.09375,0.125 0.234375,0.125 0.484375,0 0.5,0.0625 0.5,0.171875 L 2.03125,-6.125 0.59375,-0.390625 c -0.046875,0.140625 -0.046875,0.15625 -0.046875,0.21875 0,0.234375 0.203125,0.28125 0.296875,0.28125 0.15625,0 0.3125,-0.125 0.359375,-0.265625 l 0.1875,-0.75 0.21875,-0.890625 C 1.671875,-2.03125 1.734375,-2.25 1.78125,-2.46875 1.796875,-2.53125 1.890625,-2.859375 1.890625,-2.921875 1.921875,-3.015625 2.234375,-3.5625 2.578125,-3.84375 2.796875,-4 3.09375,-4.1875 3.53125,-4.1875 c 0.421875,0 0.53125,0.34375 0.53125,0.703125 0,0.53125 -0.375,1.625 -0.609375,2.234375 C 3.375,-1.03125 3.3125,-0.90625 3.3125,-0.703125 c 0,0.46875 0.359375,0.8125 0.828125,0.8125 0.9375,0 1.296875,-1.453125 1.296875,-1.53125 0,-0.109375 -0.078125,-0.109375 -0.109375,-0.109375 -0.109375,0 -0.109375,0.03125 -0.15625,0.1875 -0.140625,0.53125 -0.46875,1.234375 -1.015625,1.234375 -0.171875,0 -0.234375,-0.09375 -0.234375,-0.328125 0,-0.25 0.078125,-0.484375 0.171875,-0.703125 0.15625,-0.4375 0.609375,-1.625 0.609375,-2.203125 0,-0.640625 -0.390625,-1.0625 -1.140625,-1.0625 -0.625,0 -1.109375,0.3125 -1.484375,0.765625 z m 0,0"
               id="id-d8d66b71-9e03-4890-a4c6-067e6cd13c2e" />
          </g>
        </g>
      </g>
    </g>
    <g
       transform="matrix(0.561795,0,0,0.561795,120.18126,68.769436)"
       ns11:version="1.3.0"
       ns11:texconverter="pdflatex"
       ns11:pdfconverter="inkscape"
       ns11:text="$=$"
       ns11:preamble="C:\Users\Way Yan\AppData\Roaming\inkscape\extensions\textext\default_packages.tex"
       ns11:scale="1.5924888217333533"
       ns11:alignment="middle center"
       ns11:inkscapeversion="1.0.1"
       ns11:jacobian_sqrt="0.561795"
       id="g3498">
      <defs
         id="id-0d37841d-45d0-4c41-88bb-a649cd9c2dfd">
        <g
           id="id-acbd439e-d3fd-401e-a0ae-18a341bcb0d1">
          <symbol
             overflow="visible"
             id="id-92058a15-cafd-4559-bbd2-03a05ae7208b">
            <path
               style="stroke:none"
               d=""
               id="id-bd516d12-eae2-4873-9d12-0ef96449dba9" />
          </symbol>
          <symbol
             overflow="visible"
             id="id-3375eb3b-0f1e-4083-ae36-9e8122d4a3c3">
            <path
               style="stroke:none"
               d="m 6.84375,-3.265625 c 0.15625,0 0.34375,0 0.34375,-0.1875 C 7.1875,-3.65625 7,-3.65625 6.859375,-3.65625 h -5.96875 c -0.140625,0 -0.328125,0 -0.328125,0.203125 0,0.1875 0.1875,0.1875 0.328125,0.1875 z m 0.015625,1.9375 c 0.140625,0 0.328125,0 0.328125,-0.203125 0,-0.1875 -0.1875,-0.1875 -0.34375,-0.1875 H 0.890625 c -0.140625,0 -0.328125,0 -0.328125,0.1875 0,0.203125 0.1875,0.203125 0.328125,0.203125 z m 0,0"
               id="id-8f2bed13-2f56-42e2-8c6e-17e3caa12501" />
          </symbol>
        </g>
      </defs>
      <g
         id="id-1714efc0-b14f-408f-987f-0f4c0f2d3219"
         transform="translate(-149.275,-131.109)">
        <g
           style="fill:#000000;fill-opacity:1"
           id="id-6cb8a3d8-ae41-4129-b25e-87b121876a4f">
          <g
             transform="translate(148.712,134.765)"
             id="g3672">
            <path
               style="stroke:none"
               d="m 6.84375,-3.265625 c 0.15625,0 0.34375,0 0.34375,-0.1875 C 7.1875,-3.65625 7,-3.65625 6.859375,-3.65625 h -5.96875 c -0.140625,0 -0.328125,0 -0.328125,0.203125 0,0.1875 0.1875,0.1875 0.328125,0.1875 z m 0.015625,1.9375 c 0.140625,0 0.328125,0 0.328125,-0.203125 0,-0.1875 -0.1875,-0.1875 -0.34375,-0.1875 H 0.890625 c -0.140625,0 -0.328125,0 -0.328125,0.1875 0,0.203125 0.1875,0.203125 0.328125,0.203125 z m 0,0"
               id="id-3aaae840-93b5-45ba-b18e-d670dadde7d4" />
          </g>
        </g>
      </g>
    </g>
  </g>
</svg>
